<svg width="188" height="36" viewBox="0 0 188 36" fill="none" xmlns="http://www.w3.org/2000/svg">
<rect width="188" height="36" rx="16" fill="#BEE1E6"/>
<path d="M18.9033 23H16.7773L16.791 21.6396H18.9033C19.5186 21.6396 20.0335 21.5052 20.4482 21.2363C20.8675 20.9674 21.182 20.5824 21.3916 20.0811C21.6058 19.5798 21.7129 18.9827 21.7129 18.29V17.75C21.7129 17.2122 21.6514 16.736 21.5283 16.3213C21.4098 15.9066 21.2321 15.5579 20.9951 15.2754C20.7627 14.9928 20.4756 14.7786 20.1338 14.6328C19.7965 14.487 19.4069 14.4141 18.9648 14.4141H16.7363V13.0469H18.9648C19.6257 13.0469 20.2295 13.1585 20.7764 13.3818C21.3232 13.6006 21.7949 13.9173 22.1914 14.332C22.5924 14.7467 22.9001 15.2435 23.1143 15.8223C23.3285 16.401 23.4355 17.0482 23.4355 17.7637V18.29C23.4355 19.0055 23.3285 19.6527 23.1143 20.2314C22.9001 20.8102 22.5924 21.307 22.1914 21.7217C21.7904 22.1318 21.3118 22.4486 20.7559 22.6719C20.2044 22.8906 19.5869 23 18.9033 23ZM17.7275 13.0469V23H16.0117V13.0469H17.7275ZM26.7578 15.6035V23H25.1035V15.6035H26.7578ZM24.9941 13.6621C24.9941 13.4115 25.0762 13.2041 25.2402 13.04C25.4089 12.8714 25.6413 12.7871 25.9375 12.7871C26.2292 12.7871 26.4593 12.8714 26.6279 13.04C26.7965 13.2041 26.8809 13.4115 26.8809 13.6621C26.8809 13.9082 26.7965 14.1133 26.6279 14.2773C26.4593 14.4414 26.2292 14.5234 25.9375 14.5234C25.6413 14.5234 25.4089 14.4414 25.2402 14.2773C25.0762 14.1133 24.9941 13.9082 24.9941 13.6621ZM33.2998 15.6035H34.7969V22.7949C34.7969 23.4603 34.6556 24.0254 34.373 24.4902C34.0905 24.9551 33.6963 25.3083 33.1904 25.5498C32.6846 25.7959 32.099 25.9189 31.4336 25.9189C31.151 25.9189 30.8366 25.8779 30.4902 25.7959C30.1484 25.7139 29.8158 25.5817 29.4922 25.3994C29.1732 25.2217 28.9066 24.987 28.6924 24.6953L29.4648 23.7246C29.7292 24.0391 30.0208 24.2692 30.3398 24.415C30.6589 24.5609 30.9938 24.6338 31.3447 24.6338C31.723 24.6338 32.0443 24.5632 32.3086 24.4219C32.5775 24.2852 32.7848 24.0824 32.9307 23.8135C33.0765 23.5446 33.1494 23.2165 33.1494 22.8291V17.2783L33.2998 15.6035ZM28.2754 19.3838V19.2402C28.2754 18.6797 28.3438 18.1693 28.4805 17.709C28.6172 17.2441 28.8132 16.8454 29.0684 16.5127C29.3236 16.1755 29.6335 15.918 29.998 15.7402C30.3626 15.5579 30.7751 15.4668 31.2354 15.4668C31.7139 15.4668 32.1217 15.5534 32.459 15.7266C32.8008 15.8997 33.0856 16.1481 33.3135 16.4717C33.5413 16.7907 33.7191 17.1735 33.8467 17.6201C33.9788 18.0622 34.0768 18.5544 34.1406 19.0967V19.5547C34.0814 20.0833 33.9811 20.5664 33.8398 21.0039C33.6986 21.4414 33.5117 21.8197 33.2793 22.1387C33.0469 22.4577 32.7598 22.7038 32.418 22.877C32.0807 23.0501 31.682 23.1367 31.2217 23.1367C30.7705 23.1367 30.3626 23.0433 29.998 22.8564C29.638 22.6696 29.3281 22.4076 29.0684 22.0703C28.8132 21.7331 28.6172 21.3366 28.4805 20.8809C28.3438 20.4206 28.2754 19.9215 28.2754 19.3838ZM29.9229 19.2402V19.3838C29.9229 19.721 29.9548 20.0355 30.0186 20.3271C30.0869 20.6188 30.1895 20.8763 30.3262 21.0996C30.4674 21.3184 30.6452 21.4915 30.8594 21.6191C31.0781 21.7422 31.3356 21.8037 31.6318 21.8037C32.0192 21.8037 32.3359 21.7217 32.582 21.5576C32.8327 21.3936 33.0241 21.1725 33.1562 20.8945C33.293 20.612 33.3887 20.2975 33.4434 19.9512V18.7139C33.416 18.445 33.359 18.1943 33.2725 17.9619C33.1904 17.7295 33.0788 17.5267 32.9375 17.3535C32.7962 17.1758 32.6185 17.0391 32.4043 16.9434C32.1901 16.8431 31.9372 16.793 31.6455 16.793C31.3493 16.793 31.0918 16.8568 30.873 16.9844C30.6543 17.112 30.4743 17.2874 30.333 17.5107C30.1963 17.734 30.0938 17.9938 30.0254 18.29C29.957 18.5863 29.9229 18.903 29.9229 19.2402ZM38.2695 15.6035V23H36.6152V15.6035H38.2695ZM36.5059 13.6621C36.5059 13.4115 36.5879 13.2041 36.752 13.04C36.9206 12.8714 37.153 12.7871 37.4492 12.7871C37.7409 12.7871 37.971 12.8714 38.1396 13.04C38.3083 13.2041 38.3926 13.4115 38.3926 13.6621C38.3926 13.9082 38.3083 14.1133 38.1396 14.2773C37.971 14.4414 37.7409 14.5234 37.4492 14.5234C37.153 14.5234 36.9206 14.4414 36.752 14.2773C36.5879 14.1133 36.5059 13.9082 36.5059 13.6621ZM43.4648 15.6035V16.8066H39.2949V15.6035H43.4648ZM40.498 13.792H42.1455V20.9561C42.1455 21.1839 42.1774 21.3594 42.2412 21.4824C42.3096 21.6009 42.403 21.6807 42.5215 21.7217C42.64 21.7627 42.779 21.7832 42.9385 21.7832C43.0524 21.7832 43.1618 21.7764 43.2666 21.7627C43.3714 21.749 43.4557 21.7354 43.5195 21.7217L43.5264 22.9795C43.3896 23.0205 43.2301 23.057 43.0479 23.0889C42.8701 23.1208 42.665 23.1367 42.4326 23.1367C42.0544 23.1367 41.7194 23.0706 41.4277 22.9385C41.1361 22.8018 40.9082 22.5807 40.7441 22.2754C40.5801 21.9701 40.498 21.5645 40.498 21.0586V13.792ZM48.9062 21.5166V17.9893C48.9062 17.7249 48.8584 17.4971 48.7627 17.3057C48.667 17.1143 48.5212 16.9661 48.3252 16.8613C48.1338 16.7565 47.8923 16.7041 47.6006 16.7041C47.3317 16.7041 47.0993 16.7497 46.9033 16.8408C46.7074 16.932 46.5547 17.055 46.4453 17.21C46.3359 17.3649 46.2812 17.5404 46.2812 17.7363H44.6406C44.6406 17.4447 44.7113 17.1621 44.8525 16.8887C44.9938 16.6152 45.1989 16.3714 45.4678 16.1572C45.7367 15.943 46.0579 15.7744 46.4316 15.6514C46.8053 15.5283 47.2246 15.4668 47.6895 15.4668C48.2454 15.4668 48.7376 15.5602 49.166 15.7471C49.599 15.9339 49.9385 16.2165 50.1846 16.5947C50.4352 16.9684 50.5605 17.4378 50.5605 18.0029V21.291C50.5605 21.6283 50.5833 21.9313 50.6289 22.2002C50.679 22.4645 50.7497 22.6947 50.8408 22.8906V23H49.1523C49.0749 22.8223 49.0133 22.5967 48.9678 22.3232C48.9268 22.0452 48.9062 21.7764 48.9062 21.5166ZM49.1455 18.502L49.1592 19.5205H47.9766C47.6712 19.5205 47.4023 19.5501 47.1699 19.6094C46.9375 19.6641 46.7438 19.7461 46.5889 19.8555C46.4339 19.9648 46.3177 20.097 46.2402 20.252C46.1628 20.4069 46.124 20.5824 46.124 20.7783C46.124 20.9743 46.1696 21.1543 46.2607 21.3184C46.3519 21.4779 46.484 21.6032 46.6572 21.6943C46.835 21.7855 47.0492 21.8311 47.2998 21.8311C47.637 21.8311 47.931 21.7627 48.1816 21.626C48.4368 21.4847 48.6374 21.3138 48.7832 21.1133C48.929 20.9082 49.0065 20.7145 49.0156 20.5322L49.5488 21.2637C49.4941 21.4505 49.4007 21.651 49.2686 21.8652C49.1364 22.0794 48.9632 22.2845 48.749 22.4805C48.5394 22.6719 48.2865 22.8291 47.9902 22.9521C47.6986 23.0752 47.3613 23.1367 46.9785 23.1367C46.4954 23.1367 46.0648 23.041 45.6865 22.8496C45.3083 22.6536 45.012 22.3916 44.7979 22.0635C44.5837 21.7308 44.4766 21.3548 44.4766 20.9355C44.4766 20.5436 44.5495 20.1973 44.6953 19.8965C44.8457 19.5911 45.0645 19.3359 45.3516 19.1309C45.6432 18.9258 45.9987 18.7708 46.418 18.666C46.8372 18.5566 47.3158 18.502 47.8535 18.502H49.1455ZM54.0469 12.5V23H52.3926V12.5H54.0469ZM60.1992 13.0469H61.7305L64.6084 20.7236L67.4795 13.0469H69.0107L65.21 23H63.9932L60.1992 13.0469ZM59.502 13.0469H60.958L61.2109 19.6914V23H59.502V13.0469ZM68.252 13.0469H69.7148V23H67.999V19.6914L68.252 13.0469ZM75.7578 21.5166V17.9893C75.7578 17.7249 75.71 17.4971 75.6143 17.3057C75.5186 17.1143 75.3727 16.9661 75.1768 16.8613C74.9854 16.7565 74.7438 16.7041 74.4521 16.7041C74.1833 16.7041 73.9508 16.7497 73.7549 16.8408C73.5589 16.932 73.4062 17.055 73.2969 17.21C73.1875 17.3649 73.1328 17.5404 73.1328 17.7363H71.4922C71.4922 17.4447 71.5628 17.1621 71.7041 16.8887C71.8454 16.6152 72.0505 16.3714 72.3193 16.1572C72.5882 15.943 72.9095 15.7744 73.2832 15.6514C73.6569 15.5283 74.0762 15.4668 74.541 15.4668C75.097 15.4668 75.5892 15.5602 76.0176 15.7471C76.4505 15.9339 76.79 16.2165 77.0361 16.5947C77.2868 16.9684 77.4121 17.4378 77.4121 18.0029V21.291C77.4121 21.6283 77.4349 21.9313 77.4805 22.2002C77.5306 22.4645 77.6012 22.6947 77.6924 22.8906V23H76.0039C75.9264 22.8223 75.8649 22.5967 75.8193 22.3232C75.7783 22.0452 75.7578 21.7764 75.7578 21.5166ZM75.9971 18.502L76.0107 19.5205H74.8281C74.5228 19.5205 74.2539 19.5501 74.0215 19.6094C73.7891 19.6641 73.5954 19.7461 73.4404 19.8555C73.2855 19.9648 73.1693 20.097 73.0918 20.252C73.0143 20.4069 72.9756 20.5824 72.9756 20.7783C72.9756 20.9743 73.0212 21.1543 73.1123 21.3184C73.2035 21.4779 73.3356 21.6032 73.5088 21.6943C73.6865 21.7855 73.9007 21.8311 74.1514 21.8311C74.4886 21.8311 74.7826 21.7627 75.0332 21.626C75.2884 21.4847 75.4889 21.3138 75.6348 21.1133C75.7806 20.9082 75.8581 20.7145 75.8672 20.5322L76.4004 21.2637C76.3457 21.4505 76.2523 21.651 76.1201 21.8652C75.988 22.0794 75.8148 22.2845 75.6006 22.4805C75.391 22.6719 75.138 22.8291 74.8418 22.9521C74.5501 23.0752 74.2129 23.1367 73.8301 23.1367C73.347 23.1367 72.9163 23.041 72.5381 22.8496C72.1598 22.6536 71.8636 22.3916 71.6494 22.0635C71.4352 21.7308 71.3281 21.3548 71.3281 20.9355C71.3281 20.5436 71.401 20.1973 71.5469 19.8965C71.6973 19.5911 71.916 19.3359 72.2031 19.1309C72.4948 18.9258 72.8503 18.7708 73.2695 18.666C73.6888 18.5566 74.1673 18.502 74.7051 18.502H75.9971ZM80.7891 17.0117V23H79.1416V15.6035H80.7139L80.7891 17.0117ZM83.0518 15.5557L83.0381 17.0869C82.9378 17.0687 82.8285 17.055 82.71 17.0459C82.596 17.0368 82.4821 17.0322 82.3682 17.0322C82.0856 17.0322 81.8372 17.0732 81.623 17.1553C81.4089 17.2327 81.2288 17.3467 81.083 17.4971C80.9417 17.6429 80.8324 17.8206 80.7549 18.0303C80.6774 18.2399 80.6318 18.4746 80.6182 18.7344L80.2422 18.7617C80.2422 18.2969 80.2878 17.8662 80.3789 17.4697C80.4701 17.0732 80.6068 16.7246 80.7891 16.4238C80.9759 16.123 81.2083 15.8883 81.4863 15.7197C81.7689 15.5511 82.0947 15.4668 82.4639 15.4668C82.5641 15.4668 82.6712 15.4759 82.7852 15.4941C82.9036 15.5124 82.9925 15.5329 83.0518 15.5557ZM85.7451 12.5V23H84.0908V12.5H85.7451ZM90.3389 15.6035L87.1191 19.1719L85.3555 20.9766L84.9248 19.582L86.2578 17.9346L88.3496 15.6035H90.3389ZM88.7051 23L86.3057 19.5273L87.3447 18.3721L90.6123 23H88.7051ZM94.5088 23.1367C93.9619 23.1367 93.4674 23.0479 93.0254 22.8701C92.5879 22.6878 92.2142 22.4349 91.9043 22.1113C91.599 21.7878 91.3643 21.4072 91.2002 20.9697C91.0361 20.5322 90.9541 20.0605 90.9541 19.5547V19.2812C90.9541 18.7025 91.0384 18.1784 91.207 17.709C91.3757 17.2396 91.6104 16.8385 91.9111 16.5059C92.2119 16.1686 92.5674 15.9111 92.9775 15.7334C93.3877 15.5557 93.832 15.4668 94.3105 15.4668C94.8392 15.4668 95.3018 15.5557 95.6982 15.7334C96.0947 15.9111 96.4229 16.1618 96.6826 16.4854C96.9469 16.8044 97.1429 17.1849 97.2705 17.627C97.4027 18.069 97.4688 18.5566 97.4688 19.0898V19.7939H91.7539V18.6113H95.8418V18.4814C95.8327 18.1852 95.7734 17.9072 95.6641 17.6475C95.5592 17.3877 95.3975 17.1781 95.1787 17.0186C94.96 16.859 94.6683 16.7793 94.3037 16.7793C94.0303 16.7793 93.7865 16.8385 93.5723 16.957C93.3626 17.071 93.1872 17.2373 93.0459 17.4561C92.9046 17.6748 92.7952 17.9391 92.7178 18.249C92.6449 18.5544 92.6084 18.8984 92.6084 19.2812V19.5547C92.6084 19.8783 92.6517 20.179 92.7383 20.457C92.8294 20.7305 92.9616 20.9697 93.1348 21.1748C93.3079 21.3799 93.5176 21.5417 93.7637 21.6602C94.0098 21.7741 94.29 21.8311 94.6045 21.8311C95.001 21.8311 95.3542 21.7513 95.6641 21.5918C95.974 21.4323 96.2428 21.2067 96.4707 20.915L97.3389 21.7559C97.1794 21.9883 96.972 22.2116 96.7168 22.4258C96.4616 22.6354 96.1494 22.8063 95.7803 22.9385C95.4157 23.0706 94.9919 23.1367 94.5088 23.1367ZM102.145 15.6035V16.8066H97.9746V15.6035H102.145ZM99.1777 13.792H100.825V20.9561C100.825 21.1839 100.857 21.3594 100.921 21.4824C100.989 21.6009 101.083 21.6807 101.201 21.7217C101.32 21.7627 101.459 21.7832 101.618 21.7832C101.732 21.7832 101.841 21.7764 101.946 21.7627C102.051 21.749 102.135 21.7354 102.199 21.7217L102.206 22.9795C102.069 23.0205 101.91 23.057 101.728 23.0889C101.55 23.1208 101.345 23.1367 101.112 23.1367C100.734 23.1367 100.399 23.0706 100.107 22.9385C99.8158 22.8018 99.5879 22.5807 99.4238 22.2754C99.2598 21.9701 99.1777 21.5645 99.1777 21.0586V13.792ZM105.18 15.6035V23H103.525V15.6035H105.18ZM103.416 13.6621C103.416 13.4115 103.498 13.2041 103.662 13.04C103.831 12.8714 104.063 12.7871 104.359 12.7871C104.651 12.7871 104.881 12.8714 105.05 13.04C105.218 13.2041 105.303 13.4115 105.303 13.6621C105.303 13.9082 105.218 14.1133 105.05 14.2773C104.881 14.4414 104.651 14.5234 104.359 14.5234C104.063 14.5234 103.831 14.4414 103.662 14.2773C103.498 14.1133 103.416 13.9082 103.416 13.6621ZM108.618 17.1826V23H106.971V15.6035H108.522L108.618 17.1826ZM108.324 19.0283L107.791 19.0215C107.796 18.4974 107.868 18.0166 108.01 17.5791C108.156 17.1416 108.356 16.7656 108.611 16.4512C108.871 16.1367 109.181 15.8952 109.541 15.7266C109.901 15.5534 110.302 15.4668 110.744 15.4668C111.1 15.4668 111.421 15.5169 111.708 15.6172C112 15.7129 112.248 15.8701 112.453 16.0889C112.663 16.3076 112.822 16.5924 112.932 16.9434C113.041 17.2897 113.096 17.7158 113.096 18.2217V23H111.441V18.2148C111.441 17.8594 111.389 17.5791 111.284 17.374C111.184 17.1644 111.036 17.0163 110.84 16.9297C110.648 16.8385 110.409 16.793 110.122 16.793C109.84 16.793 109.587 16.8522 109.363 16.9707C109.14 17.0892 108.951 17.251 108.796 17.4561C108.646 17.6611 108.529 17.8981 108.447 18.167C108.365 18.4359 108.324 18.723 108.324 19.0283ZM119.515 15.6035H121.012V22.7949C121.012 23.4603 120.87 24.0254 120.588 24.4902C120.305 24.9551 119.911 25.3083 119.405 25.5498C118.899 25.7959 118.314 25.9189 117.648 25.9189C117.366 25.9189 117.051 25.8779 116.705 25.7959C116.363 25.7139 116.031 25.5817 115.707 25.3994C115.388 25.2217 115.121 24.987 114.907 24.6953L115.68 23.7246C115.944 24.0391 116.236 24.2692 116.555 24.415C116.874 24.5609 117.209 24.6338 117.56 24.6338C117.938 24.6338 118.259 24.5632 118.523 24.4219C118.792 24.2852 119 24.0824 119.146 23.8135C119.291 23.5446 119.364 23.2165 119.364 22.8291V17.2783L119.515 15.6035ZM114.49 19.3838V19.2402C114.49 18.6797 114.559 18.1693 114.695 17.709C114.832 17.2441 115.028 16.8454 115.283 16.5127C115.538 16.1755 115.848 15.918 116.213 15.7402C116.577 15.5579 116.99 15.4668 117.45 15.4668C117.929 15.4668 118.337 15.5534 118.674 15.7266C119.016 15.8997 119.3 16.1481 119.528 16.4717C119.756 16.7907 119.934 17.1735 120.062 17.6201C120.194 18.0622 120.292 18.5544 120.355 19.0967V19.5547C120.296 20.0833 120.196 20.5664 120.055 21.0039C119.913 21.4414 119.727 21.8197 119.494 22.1387C119.262 22.4577 118.975 22.7038 118.633 22.877C118.296 23.0501 117.897 23.1367 117.437 23.1367C116.985 23.1367 116.577 23.0433 116.213 22.8564C115.853 22.6696 115.543 22.4076 115.283 22.0703C115.028 21.7331 114.832 21.3366 114.695 20.8809C114.559 20.4206 114.49 19.9215 114.49 19.3838ZM116.138 19.2402V19.3838C116.138 19.721 116.17 20.0355 116.233 20.3271C116.302 20.6188 116.404 20.8763 116.541 21.0996C116.682 21.3184 116.86 21.4915 117.074 21.6191C117.293 21.7422 117.55 21.8037 117.847 21.8037C118.234 21.8037 118.551 21.7217 118.797 21.5576C119.048 21.3936 119.239 21.1725 119.371 20.8945C119.508 20.612 119.604 20.2975 119.658 19.9512V18.7139C119.631 18.445 119.574 18.1943 119.487 17.9619C119.405 17.7295 119.294 17.5267 119.152 17.3535C119.011 17.1758 118.833 17.0391 118.619 16.9434C118.405 16.8431 118.152 16.793 117.86 16.793C117.564 16.793 117.307 16.8568 117.088 16.9844C116.869 17.112 116.689 17.2874 116.548 17.5107C116.411 17.734 116.309 17.9938 116.24 18.29C116.172 18.5863 116.138 18.903 116.138 19.2402ZM130.247 14.373L127.273 23H125.476L129.222 13.0469H130.37L130.247 14.373ZM132.735 23L129.755 14.373L129.625 13.0469H130.78L134.54 23H132.735ZM132.592 19.3086V20.6689H127.178V19.3086H132.592ZM140.228 15.6035H141.725V22.7949C141.725 23.4603 141.583 24.0254 141.301 24.4902C141.018 24.9551 140.624 25.3083 140.118 25.5498C139.612 25.7959 139.027 25.9189 138.361 25.9189C138.079 25.9189 137.764 25.8779 137.418 25.7959C137.076 25.7139 136.743 25.5817 136.42 25.3994C136.101 25.2217 135.834 24.987 135.62 24.6953L136.393 23.7246C136.657 24.0391 136.949 24.2692 137.268 24.415C137.587 24.5609 137.922 24.6338 138.272 24.6338C138.651 24.6338 138.972 24.5632 139.236 24.4219C139.505 24.2852 139.713 24.0824 139.858 23.8135C140.004 23.5446 140.077 23.2165 140.077 22.8291V17.2783L140.228 15.6035ZM135.203 19.3838V19.2402C135.203 18.6797 135.271 18.1693 135.408 17.709C135.545 17.2441 135.741 16.8454 135.996 16.5127C136.251 16.1755 136.561 15.918 136.926 15.7402C137.29 15.5579 137.703 15.4668 138.163 15.4668C138.642 15.4668 139.049 15.5534 139.387 15.7266C139.729 15.8997 140.013 16.1481 140.241 16.4717C140.469 16.7907 140.647 17.1735 140.774 17.6201C140.907 18.0622 141.005 18.5544 141.068 19.0967V19.5547C141.009 20.0833 140.909 20.5664 140.768 21.0039C140.626 21.4414 140.439 21.8197 140.207 22.1387C139.975 22.4577 139.688 22.7038 139.346 22.877C139.008 23.0501 138.61 23.1367 138.149 23.1367C137.698 23.1367 137.29 23.0433 136.926 22.8564C136.566 22.6696 136.256 22.4076 135.996 22.0703C135.741 21.7331 135.545 21.3366 135.408 20.8809C135.271 20.4206 135.203 19.9215 135.203 19.3838ZM136.851 19.2402V19.3838C136.851 19.721 136.882 20.0355 136.946 20.3271C137.015 20.6188 137.117 20.8763 137.254 21.0996C137.395 21.3184 137.573 21.4915 137.787 21.6191C138.006 21.7422 138.263 21.8037 138.56 21.8037C138.947 21.8037 139.264 21.7217 139.51 21.5576C139.76 21.3936 139.952 21.1725 140.084 20.8945C140.221 20.612 140.316 20.2975 140.371 19.9512V18.7139C140.344 18.445 140.287 18.1943 140.2 17.9619C140.118 17.7295 140.007 17.5267 139.865 17.3535C139.724 17.1758 139.546 17.0391 139.332 16.9434C139.118 16.8431 138.865 16.793 138.573 16.793C138.277 16.793 138.02 16.8568 137.801 16.9844C137.582 17.112 137.402 17.2874 137.261 17.5107C137.124 17.734 137.021 17.9938 136.953 18.29C136.885 18.5863 136.851 18.903 136.851 19.2402ZM146.694 23.1367C146.147 23.1367 145.653 23.0479 145.211 22.8701C144.773 22.6878 144.4 22.4349 144.09 22.1113C143.785 21.7878 143.55 21.4072 143.386 20.9697C143.222 20.5322 143.14 20.0605 143.14 19.5547V19.2812C143.14 18.7025 143.224 18.1784 143.393 17.709C143.561 17.2396 143.796 16.8385 144.097 16.5059C144.397 16.1686 144.753 15.9111 145.163 15.7334C145.573 15.5557 146.018 15.4668 146.496 15.4668C147.025 15.4668 147.487 15.5557 147.884 15.7334C148.28 15.9111 148.608 16.1618 148.868 16.4854C149.132 16.8044 149.328 17.1849 149.456 17.627C149.588 18.069 149.654 18.5566 149.654 19.0898V19.7939H143.939V18.6113H148.027V18.4814C148.018 18.1852 147.959 17.9072 147.85 17.6475C147.745 17.3877 147.583 17.1781 147.364 17.0186C147.146 16.859 146.854 16.7793 146.489 16.7793C146.216 16.7793 145.972 16.8385 145.758 16.957C145.548 17.071 145.373 17.2373 145.231 17.4561C145.09 17.6748 144.981 17.9391 144.903 18.249C144.83 18.5544 144.794 18.8984 144.794 19.2812V19.5547C144.794 19.8783 144.837 20.179 144.924 20.457C145.015 20.7305 145.147 20.9697 145.32 21.1748C145.493 21.3799 145.703 21.5417 145.949 21.6602C146.195 21.7741 146.476 21.8311 146.79 21.8311C147.187 21.8311 147.54 21.7513 147.85 21.5918C148.16 21.4323 148.428 21.2067 148.656 20.915L149.524 21.7559C149.365 21.9883 149.158 22.2116 148.902 22.4258C148.647 22.6354 148.335 22.8063 147.966 22.9385C147.601 23.0706 147.177 23.1367 146.694 23.1367ZM152.573 17.1826V23H150.926V15.6035H152.478L152.573 17.1826ZM152.279 19.0283L151.746 19.0215C151.751 18.4974 151.824 18.0166 151.965 17.5791C152.111 17.1416 152.311 16.7656 152.566 16.4512C152.826 16.1367 153.136 15.8952 153.496 15.7266C153.856 15.5534 154.257 15.4668 154.699 15.4668C155.055 15.4668 155.376 15.5169 155.663 15.6172C155.955 15.7129 156.203 15.8701 156.408 16.0889C156.618 16.3076 156.777 16.5924 156.887 16.9434C156.996 17.2897 157.051 17.7158 157.051 18.2217V23H155.396V18.2148C155.396 17.8594 155.344 17.5791 155.239 17.374C155.139 17.1644 154.991 17.0163 154.795 16.9297C154.604 16.8385 154.364 16.793 154.077 16.793C153.795 16.793 153.542 16.8522 153.318 16.9707C153.095 17.0892 152.906 17.251 152.751 17.4561C152.601 17.6611 152.484 17.8981 152.402 18.167C152.32 18.4359 152.279 18.723 152.279 19.0283ZM161.754 21.8242C162.023 21.8242 162.264 21.7718 162.479 21.667C162.697 21.5576 162.873 21.4072 163.005 21.2158C163.142 21.0244 163.217 20.8034 163.23 20.5527H164.782C164.773 21.0312 164.632 21.4665 164.358 21.8584C164.085 22.2503 163.723 22.5625 163.271 22.7949C162.82 23.0228 162.321 23.1367 161.774 23.1367C161.209 23.1367 160.717 23.041 160.298 22.8496C159.879 22.6536 159.53 22.3848 159.252 22.043C158.974 21.7012 158.764 21.307 158.623 20.8604C158.486 20.4137 158.418 19.9352 158.418 19.4248V19.1855C158.418 18.6751 158.486 18.1966 158.623 17.75C158.764 17.2988 158.974 16.9023 159.252 16.5605C159.53 16.2188 159.879 15.9521 160.298 15.7607C160.717 15.5648 161.207 15.4668 161.768 15.4668C162.36 15.4668 162.88 15.5853 163.326 15.8223C163.773 16.0547 164.124 16.3805 164.379 16.7998C164.639 17.2145 164.773 17.6976 164.782 18.249H163.23C163.217 17.9756 163.148 17.7295 163.025 17.5107C162.907 17.2874 162.738 17.1097 162.52 16.9775C162.305 16.8454 162.048 16.7793 161.747 16.7793C161.414 16.7793 161.139 16.8477 160.92 16.9844C160.701 17.1165 160.53 17.2988 160.407 17.5312C160.284 17.7591 160.195 18.0166 160.141 18.3037C160.09 18.5863 160.065 18.8802 160.065 19.1855V19.4248C160.065 19.7301 160.09 20.0264 160.141 20.3135C160.191 20.6006 160.277 20.8581 160.4 21.0859C160.528 21.3092 160.701 21.4893 160.92 21.626C161.139 21.7581 161.417 21.8242 161.754 21.8242ZM168.193 22.1934L170.203 15.6035H171.967L169 24.1279C168.932 24.3102 168.843 24.5085 168.733 24.7227C168.624 24.9368 168.48 25.1396 168.303 25.3311C168.13 25.527 167.913 25.6842 167.653 25.8027C167.394 25.9258 167.079 25.9873 166.71 25.9873C166.564 25.9873 166.423 25.9736 166.286 25.9463C166.154 25.9235 166.029 25.8984 165.91 25.8711L165.903 24.6133C165.949 24.6178 166.004 24.6224 166.067 24.627C166.136 24.6315 166.19 24.6338 166.231 24.6338C166.505 24.6338 166.733 24.5996 166.915 24.5312C167.097 24.4674 167.245 24.3626 167.359 24.2168C167.478 24.071 167.578 23.875 167.66 23.6289L168.193 22.1934ZM167.059 15.6035L168.815 21.1406L169.109 22.877L167.968 23.1709L165.281 15.6035H167.059Z" fill="black"/>
</svg>
