<svg width="175" height="66" viewBox="0 0 175 66" fill="none" xmlns="http://www.w3.org/2000/svg">
<g filter="url(#filter0_d_2_93)">
<path d="M43.5879 28.2031V29.5635H38.3037V28.2031H43.5879ZM38.7275 24.0469V34H37.0117V24.0469H38.7275ZM44.9072 24.0469V34H43.1982V24.0469H44.9072ZM46.4727 30.3838V30.2266C46.4727 29.6934 46.5501 29.1989 46.7051 28.7432C46.86 28.2829 47.0833 27.8841 47.375 27.5469C47.6712 27.2051 48.0312 26.9408 48.4551 26.7539C48.8835 26.5625 49.3665 26.4668 49.9043 26.4668C50.4466 26.4668 50.9297 26.5625 51.3535 26.7539C51.7819 26.9408 52.1442 27.2051 52.4404 27.5469C52.7367 27.8841 52.9622 28.2829 53.1172 28.7432C53.2721 29.1989 53.3496 29.6934 53.3496 30.2266V30.3838C53.3496 30.917 53.2721 31.4115 53.1172 31.8672C52.9622 32.3229 52.7367 32.7217 52.4404 33.0635C52.1442 33.4007 51.7842 33.665 51.3604 33.8564C50.9365 34.0433 50.4557 34.1367 49.918 34.1367C49.3757 34.1367 48.8903 34.0433 48.4619 33.8564C48.0381 33.665 47.6781 33.4007 47.3818 33.0635C47.0856 32.7217 46.86 32.3229 46.7051 31.8672C46.5501 31.4115 46.4727 30.917 46.4727 30.3838ZM48.1201 30.2266V30.3838C48.1201 30.7165 48.1543 31.0309 48.2227 31.3271C48.291 31.6234 48.3981 31.8831 48.5439 32.1064C48.6898 32.3298 48.8766 32.5052 49.1045 32.6328C49.3324 32.7604 49.6035 32.8242 49.918 32.8242C50.2233 32.8242 50.4876 32.7604 50.7109 32.6328C50.9388 32.5052 51.1257 32.3298 51.2715 32.1064C51.4173 31.8831 51.5244 31.6234 51.5928 31.3271C51.6657 31.0309 51.7021 30.7165 51.7021 30.3838V30.2266C51.7021 29.8984 51.6657 29.5885 51.5928 29.2969C51.5244 29.0007 51.415 28.7386 51.2646 28.5107C51.1188 28.2829 50.932 28.1051 50.7041 27.9775C50.4808 27.8454 50.2142 27.7793 49.9043 27.7793C49.5944 27.7793 49.3255 27.8454 49.0977 27.9775C48.8743 28.1051 48.6898 28.2829 48.5439 28.5107C48.3981 28.7386 48.291 29.0007 48.2227 29.2969C48.1543 29.5885 48.1201 29.8984 48.1201 30.2266ZM56.7402 32.3594L58.4492 26.6035H59.502L59.2148 28.3262L57.4922 34H56.5488L56.7402 32.3594ZM55.7354 26.6035L57.0684 32.3867L57.1777 34H56.125L54.1221 26.6035H55.7354ZM61.1016 32.3184L62.3936 26.6035H64L62.0039 34H60.9512L61.1016 32.3184ZM59.6797 26.6035L61.3682 32.291L61.5801 34H60.6367L58.8936 28.3193L58.6064 26.6035H59.6797ZM70.3711 26.6035V34H68.7168V26.6035H70.3711ZM68.6074 24.6621C68.6074 24.4115 68.6895 24.2041 68.8535 24.04C69.0221 23.8714 69.2546 23.7871 69.5508 23.7871C69.8424 23.7871 70.0726 23.8714 70.2412 24.04C70.4098 24.2041 70.4941 24.4115 70.4941 24.6621C70.4941 24.9082 70.4098 25.1133 70.2412 25.2773C70.0726 25.4414 69.8424 25.5234 69.5508 25.5234C69.2546 25.5234 69.0221 25.4414 68.8535 25.2773C68.6895 25.1133 68.6074 24.9082 68.6074 24.6621ZM75.5664 26.6035V27.8066H71.3965V26.6035H75.5664ZM72.5996 24.792H74.2471V31.9561C74.2471 32.1839 74.279 32.3594 74.3428 32.4824C74.4111 32.6009 74.5046 32.6807 74.623 32.7217C74.7415 32.7627 74.8805 32.7832 75.04 32.7832C75.154 32.7832 75.2633 32.7764 75.3682 32.7627C75.473 32.749 75.5573 32.7354 75.6211 32.7217L75.6279 33.9795C75.4912 34.0205 75.3317 34.057 75.1494 34.0889C74.9717 34.1208 74.7666 34.1367 74.5342 34.1367C74.1559 34.1367 73.821 34.0706 73.5293 33.9385C73.2376 33.8018 73.0098 33.5807 72.8457 33.2754C72.6816 32.9701 72.5996 32.5645 72.5996 32.0586V24.792ZM82.334 32.3594L84.043 26.6035H85.0957L84.8086 28.3262L83.0859 34H82.1426L82.334 32.3594ZM81.3291 26.6035L82.6621 32.3867L82.7715 34H81.7188L79.7158 26.6035H81.3291ZM86.6953 32.3184L87.9873 26.6035H89.5938L87.5977 34H86.5449L86.6953 32.3184ZM85.2734 26.6035L86.9619 32.291L87.1738 34H86.2305L84.4873 28.3193L84.2002 26.6035H85.2734ZM90.4004 30.3838V30.2266C90.4004 29.6934 90.4779 29.1989 90.6328 28.7432C90.7878 28.2829 91.0111 27.8841 91.3027 27.5469C91.599 27.2051 91.959 26.9408 92.3828 26.7539C92.8112 26.5625 93.2943 26.4668 93.832 26.4668C94.3743 26.4668 94.8574 26.5625 95.2812 26.7539C95.7096 26.9408 96.0719 27.2051 96.3682 27.5469C96.6644 27.8841 96.89 28.2829 97.0449 28.7432C97.1999 29.1989 97.2773 29.6934 97.2773 30.2266V30.3838C97.2773 30.917 97.1999 31.4115 97.0449 31.8672C96.89 32.3229 96.6644 32.7217 96.3682 33.0635C96.0719 33.4007 95.7119 33.665 95.2881 33.8564C94.8643 34.0433 94.3835 34.1367 93.8457 34.1367C93.3034 34.1367 92.818 34.0433 92.3896 33.8564C91.9658 33.665 91.6058 33.4007 91.3096 33.0635C91.0133 32.7217 90.7878 32.3229 90.6328 31.8672C90.4779 31.4115 90.4004 30.917 90.4004 30.3838ZM92.0479 30.2266V30.3838C92.0479 30.7165 92.082 31.0309 92.1504 31.3271C92.2188 31.6234 92.3258 31.8831 92.4717 32.1064C92.6175 32.3298 92.8044 32.5052 93.0322 32.6328C93.2601 32.7604 93.5312 32.8242 93.8457 32.8242C94.151 32.8242 94.4154 32.7604 94.6387 32.6328C94.8665 32.5052 95.0534 32.3298 95.1992 32.1064C95.3451 31.8831 95.4521 31.6234 95.5205 31.3271C95.5934 31.0309 95.6299 30.7165 95.6299 30.3838V30.2266C95.6299 29.8984 95.5934 29.5885 95.5205 29.2969C95.4521 29.0007 95.3428 28.7386 95.1924 28.5107C95.0465 28.2829 94.8597 28.1051 94.6318 27.9775C94.4085 27.8454 94.1419 27.7793 93.832 27.7793C93.5221 27.7793 93.2533 27.8454 93.0254 27.9775C92.8021 28.1051 92.6175 28.2829 92.4717 28.5107C92.3258 28.7386 92.2188 29.0007 92.1504 29.2969C92.082 29.5885 92.0479 29.8984 92.0479 30.2266ZM100.312 28.0117V34H98.665V26.6035H100.237L100.312 28.0117ZM102.575 26.5557L102.562 28.0869C102.461 28.0687 102.352 28.055 102.233 28.0459C102.119 28.0368 102.006 28.0322 101.892 28.0322C101.609 28.0322 101.361 28.0732 101.146 28.1553C100.932 28.2327 100.752 28.3467 100.606 28.4971C100.465 28.6429 100.356 28.8206 100.278 29.0303C100.201 29.2399 100.155 29.4746 100.142 29.7344L99.7656 29.7617C99.7656 29.2969 99.8112 28.8662 99.9023 28.4697C99.9935 28.0732 100.13 27.7246 100.312 27.4238C100.499 27.123 100.732 26.8883 101.01 26.7197C101.292 26.5511 101.618 26.4668 101.987 26.4668C102.088 26.4668 102.195 26.4759 102.309 26.4941C102.427 26.5124 102.516 26.5329 102.575 26.5557ZM105.269 23.5V34H103.614V23.5H105.269ZM109.862 26.6035L106.643 30.1719L104.879 31.9766L104.448 30.582L105.781 28.9346L107.873 26.6035H109.862ZM108.229 34L105.829 30.5273L106.868 29.3721L110.136 34H108.229ZM115.058 31.9971C115.058 31.833 115.017 31.6849 114.935 31.5527C114.853 31.416 114.695 31.293 114.463 31.1836C114.235 31.0742 113.898 30.974 113.451 30.8828C113.059 30.7962 112.699 30.6937 112.371 30.5752C112.048 30.4521 111.77 30.304 111.537 30.1309C111.305 29.9577 111.125 29.7526 110.997 29.5156C110.869 29.2786 110.806 29.0052 110.806 28.6953C110.806 28.3945 110.872 28.1097 111.004 27.8408C111.136 27.5719 111.325 27.335 111.571 27.1299C111.817 26.9248 112.116 26.763 112.467 26.6445C112.822 26.526 113.219 26.4668 113.656 26.4668C114.276 26.4668 114.807 26.5716 115.249 26.7812C115.696 26.9863 116.037 27.2666 116.274 27.6221C116.511 27.973 116.63 28.3695 116.63 28.8115H114.982C114.982 28.6156 114.932 28.4333 114.832 28.2646C114.736 28.0915 114.59 27.9525 114.395 27.8477C114.199 27.7383 113.952 27.6836 113.656 27.6836C113.374 27.6836 113.139 27.7292 112.952 27.8203C112.77 27.9069 112.633 28.0208 112.542 28.1621C112.455 28.3034 112.412 28.4583 112.412 28.627C112.412 28.75 112.435 28.8617 112.48 28.9619C112.531 29.0576 112.613 29.1465 112.727 29.2285C112.84 29.306 112.995 29.3789 113.191 29.4473C113.392 29.5156 113.643 29.5817 113.943 29.6455C114.508 29.764 114.994 29.9167 115.399 30.1035C115.81 30.2858 116.124 30.5228 116.343 30.8145C116.562 31.1016 116.671 31.4661 116.671 31.9082C116.671 32.2363 116.6 32.5371 116.459 32.8105C116.322 33.0794 116.122 33.3141 115.857 33.5146C115.593 33.7106 115.276 33.8633 114.907 33.9727C114.543 34.082 114.132 34.1367 113.677 34.1367C113.007 34.1367 112.439 34.0182 111.975 33.7812C111.51 33.5397 111.157 33.2321 110.915 32.8584C110.678 32.4801 110.56 32.0882 110.56 31.6826H112.152C112.171 31.988 112.255 32.2318 112.405 32.4141C112.56 32.5918 112.752 32.7217 112.979 32.8037C113.212 32.8812 113.451 32.9199 113.697 32.9199C113.993 32.9199 114.242 32.8812 114.442 32.8037C114.643 32.7217 114.796 32.6123 114.9 32.4756C115.005 32.3343 115.058 32.1748 115.058 31.9971Z" fill="black"/>
<g clip-path="url(#clip0_2_93)">
<g clip-path="url(#clip1_2_93)">
<path d="M132 23L130.943 24.0575L135.128 28.25H126V29.75H135.128L130.943 33.9425L132 35L138 29L132 23Z" fill="black"/>
</g>
</g>
<rect x="4.5" y="0.5" width="166" height="57" rx="7.5" stroke="#006D77" shape-rendering="crispEdges"/>
</g>
<defs>
<filter id="filter0_d_2_93" x="0" y="0" width="175" height="66" filterUnits="userSpaceOnUse" color-interpolation-filters="sRGB">
<feFlood flood-opacity="0" result="BackgroundImageFix"/>
<feColorMatrix in="SourceAlpha" type="matrix" values="0 0 0 0 0 0 0 0 0 0 0 0 0 0 0 0 0 0 127 0" result="hardAlpha"/>
<feOffset dy="4"/>
<feGaussianBlur stdDeviation="2"/>
<feComposite in2="hardAlpha" operator="out"/>
<feColorMatrix type="matrix" values="0 0 0 0 0 0 0 0 0 0 0 0 0 0 0 0 0 0 0.1 0"/>
<feBlend mode="normal" in2="BackgroundImageFix" result="effect1_dropShadow_2_93"/>
<feBlend mode="normal" in="SourceGraphic" in2="effect1_dropShadow_2_93" result="shape"/>
</filter>
<clipPath id="clip0_2_93">
<rect width="18" height="18" fill="white" transform="translate(121 20)"/>
</clipPath>
<clipPath id="clip1_2_93">
<rect width="18" height="18" fill="white" transform="translate(123 20)"/>
</clipPath>
</defs>
</svg>
