<svg width="165" height="66" viewBox="0 0 165 66" fill="none" xmlns="http://www.w3.org/2000/svg">
<g filter="url(#filter0_d_2_79)">
<rect x="4" width="157" height="58" rx="8" fill="#030303" shape-rendering="crispEdges"/>
<path d="M44.6543 28.9141V32.7148C44.513 32.9017 44.292 33.1068 43.9912 33.3301C43.695 33.5488 43.3008 33.738 42.8086 33.8975C42.3164 34.057 41.7035 34.1367 40.9697 34.1367C40.3454 34.1367 39.7734 34.0319 39.2539 33.8223C38.7344 33.6081 38.2855 33.2959 37.9072 32.8857C37.5335 32.4756 37.2441 31.9766 37.0391 31.3887C36.834 30.7962 36.7314 30.1217 36.7314 29.3652V28.6748C36.7314 27.9229 36.8249 27.2529 37.0117 26.665C37.2031 26.0726 37.4766 25.5713 37.832 25.1611C38.1875 24.751 38.6159 24.4411 39.1172 24.2314C39.623 24.0173 40.195 23.9102 40.833 23.9102C41.6488 23.9102 42.3232 24.0469 42.8564 24.3203C43.3942 24.5892 43.8089 24.9629 44.1006 25.4414C44.3923 25.9199 44.5768 26.4668 44.6543 27.082H42.9727C42.918 26.7357 42.8109 26.4258 42.6514 26.1523C42.4964 25.8789 42.2731 25.6647 41.9814 25.5098C41.6943 25.3503 41.3206 25.2705 40.8604 25.2705C40.4639 25.2705 40.1152 25.3457 39.8145 25.4961C39.5137 25.6465 39.263 25.8675 39.0625 26.1592C38.8665 26.4508 38.7184 26.8063 38.6182 27.2256C38.5179 27.6449 38.4678 28.1234 38.4678 28.6611V29.3652C38.4678 29.9121 38.5247 30.3975 38.6387 30.8213C38.7572 31.2451 38.9258 31.6029 39.1445 31.8945C39.3678 32.1862 39.639 32.4072 39.958 32.5576C40.277 32.7035 40.637 32.7764 41.0381 32.7764C41.43 32.7764 41.7513 32.7445 42.002 32.6807C42.2526 32.6123 42.4508 32.5326 42.5967 32.4414C42.7471 32.3457 42.8633 32.2546 42.9453 32.168V30.1924H40.874V28.9141H44.6543ZM49.6514 34.1367C49.1045 34.1367 48.61 34.0479 48.168 33.8701C47.7305 33.6878 47.3568 33.4349 47.0469 33.1113C46.7415 32.7878 46.5068 32.4072 46.3428 31.9697C46.1787 31.5322 46.0967 31.0605 46.0967 30.5547V30.2812C46.0967 29.7025 46.181 29.1784 46.3496 28.709C46.5182 28.2396 46.7529 27.8385 47.0537 27.5059C47.3545 27.1686 47.71 26.9111 48.1201 26.7334C48.5303 26.5557 48.9746 26.4668 49.4531 26.4668C49.9818 26.4668 50.4443 26.5557 50.8408 26.7334C51.2373 26.9111 51.5654 27.1618 51.8252 27.4854C52.0895 27.8044 52.2855 28.1849 52.4131 28.627C52.5452 29.069 52.6113 29.5566 52.6113 30.0898V30.7939H46.8965V29.6113H50.9844V29.4814C50.9753 29.1852 50.916 28.9072 50.8066 28.6475C50.7018 28.3877 50.54 28.1781 50.3213 28.0186C50.1025 27.859 49.8109 27.7793 49.4463 27.7793C49.1729 27.7793 48.929 27.8385 48.7148 27.957C48.5052 28.071 48.3298 28.2373 48.1885 28.4561C48.0472 28.6748 47.9378 28.9391 47.8604 29.249C47.7874 29.5544 47.751 29.8984 47.751 30.2812V30.5547C47.751 30.8783 47.7943 31.179 47.8809 31.457C47.972 31.7305 48.1042 31.9697 48.2773 32.1748C48.4505 32.3799 48.6602 32.5417 48.9062 32.6602C49.1523 32.7741 49.4326 32.8311 49.7471 32.8311C50.1436 32.8311 50.4967 32.7513 50.8066 32.5918C51.1165 32.4323 51.3854 32.2067 51.6133 31.915L52.4814 32.7559C52.3219 32.9883 52.1146 33.2116 51.8594 33.4258C51.6042 33.6354 51.292 33.8063 50.9229 33.9385C50.5583 34.0706 50.1344 34.1367 49.6514 34.1367ZM57.2871 26.6035V27.8066H53.1172V26.6035H57.2871ZM54.3203 24.792H55.9678V31.9561C55.9678 32.1839 55.9997 32.3594 56.0635 32.4824C56.1318 32.6009 56.2253 32.6807 56.3438 32.7217C56.4622 32.7627 56.6012 32.7832 56.7607 32.7832C56.8747 32.7832 56.984 32.7764 57.0889 32.7627C57.1937 32.749 57.278 32.7354 57.3418 32.7217L57.3486 33.9795C57.2119 34.0205 57.0524 34.057 56.8701 34.0889C56.6924 34.1208 56.4873 34.1367 56.2549 34.1367C55.8766 34.1367 55.5417 34.0706 55.25 33.9385C54.9583 33.8018 54.7305 33.5807 54.5664 33.2754C54.4023 32.9701 54.3203 32.5645 54.3203 32.0586V24.792ZM67.4453 31.4365C67.4453 31.2314 67.4134 31.0492 67.3496 30.8896C67.2904 30.7301 67.1833 30.5843 67.0283 30.4521C66.8734 30.32 66.6546 30.1924 66.3721 30.0693C66.0941 29.9417 65.7386 29.8118 65.3057 29.6797C64.8317 29.5339 64.3942 29.3721 63.9932 29.1943C63.5967 29.012 63.2503 28.8024 62.9541 28.5654C62.6579 28.3239 62.4277 28.0482 62.2637 27.7383C62.0996 27.4238 62.0176 27.0615 62.0176 26.6514C62.0176 26.2458 62.1019 25.8766 62.2705 25.5439C62.4437 25.2113 62.6875 24.9242 63.002 24.6826C63.321 24.4365 63.6969 24.2474 64.1299 24.1152C64.5628 23.9785 65.0413 23.9102 65.5654 23.9102C66.3037 23.9102 66.9395 24.0469 67.4727 24.3203C68.0104 24.5938 68.4229 24.9606 68.71 25.4209C69.0016 25.8812 69.1475 26.3893 69.1475 26.9453H67.4453C67.4453 26.6172 67.3747 26.3278 67.2334 26.0771C67.0967 25.8219 66.887 25.6214 66.6045 25.4756C66.3265 25.3298 65.9733 25.2568 65.5449 25.2568C65.1393 25.2568 64.8021 25.3184 64.5332 25.4414C64.2643 25.5645 64.0638 25.7308 63.9316 25.9404C63.7995 26.1501 63.7334 26.387 63.7334 26.6514C63.7334 26.8382 63.7767 27.0091 63.8633 27.1641C63.9499 27.3145 64.082 27.4557 64.2598 27.5879C64.4375 27.7155 64.6608 27.8363 64.9297 27.9502C65.1986 28.0641 65.5153 28.1735 65.8799 28.2783C66.4313 28.4424 66.9121 28.6247 67.3223 28.8252C67.7324 29.0212 68.0742 29.2445 68.3477 29.4951C68.6211 29.7458 68.8262 30.0306 68.9629 30.3496C69.0996 30.6641 69.168 31.0218 69.168 31.4229C69.168 31.8421 69.0837 32.2204 68.915 32.5576C68.7464 32.8903 68.5049 33.1751 68.1904 33.4121C67.8805 33.6445 67.5068 33.8245 67.0693 33.9521C66.6364 34.0752 66.1533 34.1367 65.6201 34.1367C65.1416 34.1367 64.6699 34.0729 64.2051 33.9453C63.7448 33.8177 63.3255 33.624 62.9473 33.3643C62.569 33.0999 62.2682 32.7718 62.0449 32.3799C61.8216 31.9834 61.71 31.5208 61.71 30.9922H63.4258C63.4258 31.3158 63.4805 31.5915 63.5898 31.8193C63.7038 32.0472 63.861 32.234 64.0615 32.3799C64.262 32.5212 64.4945 32.626 64.7588 32.6943C65.0277 32.7627 65.3148 32.7969 65.6201 32.7969C66.0212 32.7969 66.3561 32.7399 66.625 32.626C66.8984 32.512 67.1035 32.3525 67.2402 32.1475C67.377 31.9424 67.4453 31.7054 67.4453 31.4365ZM73.9121 26.6035V27.8066H69.7422V26.6035H73.9121ZM70.9453 24.792H72.5928V31.9561C72.5928 32.1839 72.6247 32.3594 72.6885 32.4824C72.7568 32.6009 72.8503 32.6807 72.9688 32.7217C73.0872 32.7627 73.2262 32.7832 73.3857 32.7832C73.4997 32.7832 73.609 32.7764 73.7139 32.7627C73.8187 32.749 73.903 32.7354 73.9668 32.7217L73.9736 33.9795C73.8369 34.0205 73.6774 34.057 73.4951 34.0889C73.3174 34.1208 73.1123 34.1367 72.8799 34.1367C72.5016 34.1367 72.1667 34.0706 71.875 33.9385C71.5833 33.8018 71.3555 33.5807 71.1914 33.2754C71.0273 32.9701 70.9453 32.5645 70.9453 32.0586V24.792ZM79.3535 32.5166V28.9893C79.3535 28.7249 79.3057 28.4971 79.21 28.3057C79.1143 28.1143 78.9684 27.9661 78.7725 27.8613C78.5811 27.7565 78.3395 27.7041 78.0479 27.7041C77.779 27.7041 77.5465 27.7497 77.3506 27.8408C77.1546 27.932 77.002 28.055 76.8926 28.21C76.7832 28.3649 76.7285 28.5404 76.7285 28.7363H75.0879C75.0879 28.4447 75.1585 28.1621 75.2998 27.8887C75.4411 27.6152 75.6462 27.3714 75.915 27.1572C76.1839 26.943 76.5052 26.7744 76.8789 26.6514C77.2526 26.5283 77.6719 26.4668 78.1367 26.4668C78.6927 26.4668 79.1849 26.5602 79.6133 26.7471C80.0462 26.9339 80.3857 27.2165 80.6318 27.5947C80.8825 27.9684 81.0078 28.4378 81.0078 29.0029V32.291C81.0078 32.6283 81.0306 32.9313 81.0762 33.2002C81.1263 33.4645 81.1969 33.6947 81.2881 33.8906V34H79.5996C79.5221 33.8223 79.4606 33.5967 79.415 33.3232C79.374 33.0452 79.3535 32.7764 79.3535 32.5166ZM79.5928 29.502L79.6064 30.5205H78.4238C78.1185 30.5205 77.8496 30.5501 77.6172 30.6094C77.3848 30.6641 77.1911 30.7461 77.0361 30.8555C76.8812 30.9648 76.765 31.097 76.6875 31.252C76.61 31.4069 76.5713 31.5824 76.5713 31.7783C76.5713 31.9743 76.6169 32.1543 76.708 32.3184C76.7992 32.4779 76.9313 32.6032 77.1045 32.6943C77.2822 32.7855 77.4964 32.8311 77.7471 32.8311C78.0843 32.8311 78.3783 32.7627 78.6289 32.626C78.8841 32.4847 79.0846 32.3138 79.2305 32.1133C79.3763 31.9082 79.4538 31.7145 79.4629 31.5322L79.9961 32.2637C79.9414 32.4505 79.848 32.651 79.7158 32.8652C79.5837 33.0794 79.4105 33.2845 79.1963 33.4805C78.9867 33.6719 78.7337 33.8291 78.4375 33.9521C78.1458 34.0752 77.8086 34.1367 77.4258 34.1367C76.9427 34.1367 76.512 34.041 76.1338 33.8496C75.7555 33.6536 75.4593 33.3916 75.2451 33.0635C75.0309 32.7308 74.9238 32.3548 74.9238 31.9355C74.9238 31.5436 74.9967 31.1973 75.1426 30.8965C75.293 30.5911 75.5117 30.3359 75.7988 30.1309C76.0905 29.9258 76.446 29.7708 76.8652 29.666C77.2845 29.5566 77.763 29.502 78.3008 29.502H79.5928ZM84.3848 28.0117V34H82.7373V26.6035H84.3096L84.3848 28.0117ZM86.6475 26.5557L86.6338 28.0869C86.5335 28.0687 86.4242 28.055 86.3057 28.0459C86.1917 28.0368 86.0778 28.0322 85.9639 28.0322C85.6813 28.0322 85.4329 28.0732 85.2188 28.1553C85.0046 28.2327 84.8245 28.3467 84.6787 28.4971C84.5374 28.6429 84.4281 28.8206 84.3506 29.0303C84.2731 29.2399 84.2275 29.4746 84.2139 29.7344L83.8379 29.7617C83.8379 29.2969 83.8835 28.8662 83.9746 28.4697C84.0658 28.0732 84.2025 27.7246 84.3848 27.4238C84.5716 27.123 84.804 26.8883 85.082 26.7197C85.3646 26.5511 85.6904 26.4668 86.0596 26.4668C86.1598 26.4668 86.2669 26.4759 86.3809 26.4941C86.4993 26.5124 86.5882 26.5329 86.6475 26.5557ZM91.4121 26.6035V27.8066H87.2422V26.6035H91.4121ZM88.4453 24.792H90.0928V31.9561C90.0928 32.1839 90.1247 32.3594 90.1885 32.4824C90.2568 32.6009 90.3503 32.6807 90.4688 32.7217C90.5872 32.7627 90.7262 32.7832 90.8857 32.7832C90.9997 32.7832 91.109 32.7764 91.2139 32.7627C91.3187 32.749 91.403 32.7354 91.4668 32.7217L91.4736 33.9795C91.3369 34.0205 91.1774 34.057 90.9951 34.0889C90.8174 34.1208 90.6123 34.1367 90.3799 34.1367C90.0016 34.1367 89.6667 34.0706 89.375 33.9385C89.0833 33.8018 88.8555 33.5807 88.6914 33.2754C88.5273 32.9701 88.4453 32.5645 88.4453 32.0586V24.792ZM95.9443 34.1367C95.3975 34.1367 94.903 34.0479 94.4609 33.8701C94.0234 33.6878 93.6497 33.4349 93.3398 33.1113C93.0345 32.7878 92.7998 32.4072 92.6357 31.9697C92.4717 31.5322 92.3896 31.0605 92.3896 30.5547V30.2812C92.3896 29.7025 92.474 29.1784 92.6426 28.709C92.8112 28.2396 93.0459 27.8385 93.3467 27.5059C93.6475 27.1686 94.0029 26.9111 94.4131 26.7334C94.8232 26.5557 95.2676 26.4668 95.7461 26.4668C96.2747 26.4668 96.7373 26.5557 97.1338 26.7334C97.5303 26.9111 97.8584 27.1618 98.1182 27.4854C98.3825 27.8044 98.5785 28.1849 98.7061 28.627C98.8382 29.069 98.9043 29.5566 98.9043 30.0898V30.7939H93.1895V29.6113H97.2773V29.4814C97.2682 29.1852 97.209 28.9072 97.0996 28.6475C96.9948 28.3877 96.833 28.1781 96.6143 28.0186C96.3955 27.859 96.1038 27.7793 95.7393 27.7793C95.4658 27.7793 95.222 27.8385 95.0078 27.957C94.7982 28.071 94.6227 28.2373 94.4814 28.4561C94.3402 28.6748 94.2308 28.9391 94.1533 29.249C94.0804 29.5544 94.0439 29.8984 94.0439 30.2812V30.5547C94.0439 30.8783 94.0872 31.179 94.1738 31.457C94.265 31.7305 94.3971 31.9697 94.5703 32.1748C94.7435 32.3799 94.9531 32.5417 95.1992 32.6602C95.4453 32.7741 95.7256 32.8311 96.04 32.8311C96.4365 32.8311 96.7897 32.7513 97.0996 32.5918C97.4095 32.4323 97.6784 32.2067 97.9062 31.915L98.7744 32.7559C98.6149 32.9883 98.4076 33.2116 98.1523 33.4258C97.8971 33.6354 97.585 33.8063 97.2158 33.9385C96.8512 34.0706 96.4274 34.1367 95.9443 34.1367ZM104.701 32.4688V23.5H106.355V34H104.858L104.701 32.4688ZM99.8887 30.3838V30.2402C99.8887 29.6797 99.9548 29.1693 100.087 28.709C100.219 28.2441 100.41 27.8454 100.661 27.5127C100.912 27.1755 101.217 26.918 101.577 26.7402C101.937 26.5579 102.343 26.4668 102.794 26.4668C103.241 26.4668 103.632 26.5534 103.97 26.7266C104.307 26.8997 104.594 27.1481 104.831 27.4717C105.068 27.7907 105.257 28.1735 105.398 28.6201C105.54 29.0622 105.64 29.5544 105.699 30.0967V30.5547C105.64 31.0833 105.54 31.5664 105.398 32.0039C105.257 32.4414 105.068 32.8197 104.831 33.1387C104.594 33.4577 104.305 33.7038 103.963 33.877C103.626 34.0501 103.231 34.1367 102.78 34.1367C102.334 34.1367 101.93 34.0433 101.57 33.8564C101.215 33.6696 100.912 33.4076 100.661 33.0703C100.41 32.7331 100.219 32.3366 100.087 31.8809C99.9548 31.4206 99.8887 30.9215 99.8887 30.3838ZM101.536 30.2402V30.3838C101.536 30.721 101.566 31.0355 101.625 31.3271C101.689 31.6188 101.787 31.8763 101.919 32.0996C102.051 32.3184 102.222 32.4915 102.432 32.6191C102.646 32.7422 102.901 32.8037 103.197 32.8037C103.571 32.8037 103.879 32.7217 104.12 32.5576C104.362 32.3936 104.551 32.1725 104.688 31.8945C104.829 31.612 104.924 31.2975 104.975 30.9512V29.7139C104.947 29.445 104.89 29.1943 104.804 28.9619C104.722 28.7295 104.61 28.5267 104.469 28.3535C104.327 28.1758 104.152 28.0391 103.942 27.9434C103.737 27.8431 103.493 27.793 103.211 27.793C102.91 27.793 102.655 27.8568 102.445 27.9844C102.236 28.112 102.062 28.2874 101.926 28.5107C101.794 28.734 101.696 28.9938 101.632 29.29C101.568 29.5863 101.536 29.903 101.536 30.2402Z" fill="white"/>
<g clip-path="url(#clip0_2_79)">
<g clip-path="url(#clip1_2_79)">
<path d="M122 23L120.943 24.0575L125.128 28.25H116V29.75H125.128L120.943 33.9425L122 35L128 29L122 23Z" fill="white"/>
</g>
</g>
</g>
<defs>
<filter id="filter0_d_2_79" x="0" y="0" width="165" height="66" filterUnits="userSpaceOnUse" color-interpolation-filters="sRGB">
<feFlood flood-opacity="0" result="BackgroundImageFix"/>
<feColorMatrix in="SourceAlpha" type="matrix" values="0 0 0 0 0 0 0 0 0 0 0 0 0 0 0 0 0 0 127 0" result="hardAlpha"/>
<feOffset dy="4"/>
<feGaussianBlur stdDeviation="2"/>
<feComposite in2="hardAlpha" operator="out"/>
<feColorMatrix type="matrix" values="0 0 0 0 0 0 0 0 0 0 0 0 0 0 0 0 0 0 0.1 0"/>
<feBlend mode="normal" in2="BackgroundImageFix" result="effect1_dropShadow_2_79"/>
<feBlend mode="normal" in="SourceGraphic" in2="effect1_dropShadow_2_79" result="shape"/>
</filter>
<clipPath id="clip0_2_79">
<rect width="18" height="18" fill="white" transform="translate(111 20)"/>
</clipPath>
<clipPath id="clip1_2_79">
<rect width="18" height="18" fill="white" transform="translate(113 20)"/>
</clipPath>
</defs>
</svg>
