<svg width="141" height="46" viewBox="0 0 141 46" fill="none" xmlns="http://www.w3.org/2000/svg">
<g filter="url(#filter0_d_2_44)">
<rect x="4" width="133" height="38" rx="8" fill="#BEE1E6" shape-rendering="crispEdges"/>
<path d="M32.6543 18.9141V22.7148C32.513 22.9017 32.292 23.1068 31.9912 23.3301C31.695 23.5488 31.3008 23.738 30.8086 23.8975C30.3164 24.057 29.7035 24.1367 28.9697 24.1367C28.3454 24.1367 27.7734 24.0319 27.2539 23.8223C26.7344 23.6081 26.2855 23.2959 25.9072 22.8857C25.5335 22.4756 25.2441 21.9766 25.0391 21.3887C24.834 20.7962 24.7314 20.1217 24.7314 19.3652V18.6748C24.7314 17.9229 24.8249 17.2529 25.0117 16.665C25.2031 16.0726 25.4766 15.5713 25.832 15.1611C26.1875 14.751 26.6159 14.4411 27.1172 14.2314C27.623 14.0173 28.195 13.9102 28.833 13.9102C29.6488 13.9102 30.3232 14.0469 30.8564 14.3203C31.3942 14.5892 31.8089 14.9629 32.1006 15.4414C32.3923 15.9199 32.5768 16.4668 32.6543 17.082H30.9727C30.918 16.7357 30.8109 16.4258 30.6514 16.1523C30.4964 15.8789 30.2731 15.6647 29.9814 15.5098C29.6943 15.3503 29.3206 15.2705 28.8604 15.2705C28.4639 15.2705 28.1152 15.3457 27.8145 15.4961C27.5137 15.6465 27.263 15.8675 27.0625 16.1592C26.8665 16.4508 26.7184 16.8063 26.6182 17.2256C26.5179 17.6449 26.4678 18.1234 26.4678 18.6611V19.3652C26.4678 19.9121 26.5247 20.3975 26.6387 20.8213C26.7572 21.2451 26.9258 21.6029 27.1445 21.8945C27.3678 22.1862 27.639 22.4072 27.958 22.5576C28.277 22.7035 28.637 22.7764 29.0381 22.7764C29.43 22.7764 29.7513 22.7445 30.002 22.6807C30.2526 22.6123 30.4508 22.5326 30.5967 22.4414C30.7471 22.3457 30.8633 22.2546 30.9453 22.168V20.1924H28.874V18.9141H32.6543ZM37.6514 24.1367C37.1045 24.1367 36.61 24.0479 36.168 23.8701C35.7305 23.6878 35.3568 23.4349 35.0469 23.1113C34.7415 22.7878 34.5068 22.4072 34.3428 21.9697C34.1787 21.5322 34.0967 21.0605 34.0967 20.5547V20.2812C34.0967 19.7025 34.181 19.1784 34.3496 18.709C34.5182 18.2396 34.7529 17.8385 35.0537 17.5059C35.3545 17.1686 35.71 16.9111 36.1201 16.7334C36.5303 16.5557 36.9746 16.4668 37.4531 16.4668C37.9818 16.4668 38.4443 16.5557 38.8408 16.7334C39.2373 16.9111 39.5654 17.1618 39.8252 17.4854C40.0895 17.8044 40.2855 18.1849 40.4131 18.627C40.5452 19.069 40.6113 19.5566 40.6113 20.0898V20.7939H34.8965V19.6113H38.9844V19.4814C38.9753 19.1852 38.916 18.9072 38.8066 18.6475C38.7018 18.3877 38.54 18.1781 38.3213 18.0186C38.1025 17.859 37.8109 17.7793 37.4463 17.7793C37.1729 17.7793 36.929 17.8385 36.7148 17.957C36.5052 18.071 36.3298 18.2373 36.1885 18.4561C36.0472 18.6748 35.9378 18.9391 35.8604 19.249C35.7874 19.5544 35.751 19.8984 35.751 20.2812V20.5547C35.751 20.8783 35.7943 21.179 35.8809 21.457C35.972 21.7305 36.1042 21.9697 36.2773 22.1748C36.4505 22.3799 36.6602 22.5417 36.9062 22.6602C37.1523 22.7741 37.4326 22.8311 37.7471 22.8311C38.1436 22.8311 38.4967 22.7513 38.8066 22.5918C39.1165 22.4323 39.3854 22.2067 39.6133 21.915L40.4814 22.7559C40.3219 22.9883 40.1146 23.2116 39.8594 23.4258C39.6042 23.6354 39.292 23.8063 38.9229 23.9385C38.5583 24.0706 38.1344 24.1367 37.6514 24.1367ZM45.2871 16.6035V17.8066H41.1172V16.6035H45.2871ZM42.3203 14.792H43.9678V21.9561C43.9678 22.1839 43.9997 22.3594 44.0635 22.4824C44.1318 22.6009 44.2253 22.6807 44.3438 22.7217C44.4622 22.7627 44.6012 22.7832 44.7607 22.7832C44.8747 22.7832 44.984 22.7764 45.0889 22.7627C45.1937 22.749 45.278 22.7354 45.3418 22.7217L45.3486 23.9795C45.2119 24.0205 45.0524 24.057 44.8701 24.0889C44.6924 24.1208 44.4873 24.1367 44.2549 24.1367C43.8766 24.1367 43.5417 24.0706 43.25 23.9385C42.9583 23.8018 42.7305 23.5807 42.5664 23.2754C42.4023 22.9701 42.3203 22.5645 42.3203 22.0586V14.792ZM55.4453 21.4365C55.4453 21.2314 55.4134 21.0492 55.3496 20.8896C55.2904 20.7301 55.1833 20.5843 55.0283 20.4521C54.8734 20.32 54.6546 20.1924 54.3721 20.0693C54.0941 19.9417 53.7386 19.8118 53.3057 19.6797C52.8317 19.5339 52.3942 19.3721 51.9932 19.1943C51.5967 19.012 51.2503 18.8024 50.9541 18.5654C50.6579 18.3239 50.4277 18.0482 50.2637 17.7383C50.0996 17.4238 50.0176 17.0615 50.0176 16.6514C50.0176 16.2458 50.1019 15.8766 50.2705 15.5439C50.4437 15.2113 50.6875 14.9242 51.002 14.6826C51.321 14.4365 51.6969 14.2474 52.1299 14.1152C52.5628 13.9785 53.0413 13.9102 53.5654 13.9102C54.3037 13.9102 54.9395 14.0469 55.4727 14.3203C56.0104 14.5938 56.4229 14.9606 56.71 15.4209C57.0016 15.8812 57.1475 16.3893 57.1475 16.9453H55.4453C55.4453 16.6172 55.3747 16.3278 55.2334 16.0771C55.0967 15.8219 54.887 15.6214 54.6045 15.4756C54.3265 15.3298 53.9733 15.2568 53.5449 15.2568C53.1393 15.2568 52.8021 15.3184 52.5332 15.4414C52.2643 15.5645 52.0638 15.7308 51.9316 15.9404C51.7995 16.1501 51.7334 16.387 51.7334 16.6514C51.7334 16.8382 51.7767 17.0091 51.8633 17.1641C51.9499 17.3145 52.082 17.4557 52.2598 17.5879C52.4375 17.7155 52.6608 17.8363 52.9297 17.9502C53.1986 18.0641 53.5153 18.1735 53.8799 18.2783C54.4313 18.4424 54.9121 18.6247 55.3223 18.8252C55.7324 19.0212 56.0742 19.2445 56.3477 19.4951C56.6211 19.7458 56.8262 20.0306 56.9629 20.3496C57.0996 20.6641 57.168 21.0218 57.168 21.4229C57.168 21.8421 57.0837 22.2204 56.915 22.5576C56.7464 22.8903 56.5049 23.1751 56.1904 23.4121C55.8805 23.6445 55.5068 23.8245 55.0693 23.9521C54.6364 24.0752 54.1533 24.1367 53.6201 24.1367C53.1416 24.1367 52.6699 24.0729 52.2051 23.9453C51.7448 23.8177 51.3255 23.624 50.9473 23.3643C50.569 23.0999 50.2682 22.7718 50.0449 22.3799C49.8216 21.9834 49.71 21.5208 49.71 20.9922H51.4258C51.4258 21.3158 51.4805 21.5915 51.5898 21.8193C51.7038 22.0472 51.861 22.234 52.0615 22.3799C52.262 22.5212 52.4945 22.626 52.7588 22.6943C53.0277 22.7627 53.3148 22.7969 53.6201 22.7969C54.0212 22.7969 54.3561 22.7399 54.625 22.626C54.8984 22.512 55.1035 22.3525 55.2402 22.1475C55.377 21.9424 55.4453 21.7054 55.4453 21.4365ZM61.9121 16.6035V17.8066H57.7422V16.6035H61.9121ZM58.9453 14.792H60.5928V21.9561C60.5928 22.1839 60.6247 22.3594 60.6885 22.4824C60.7568 22.6009 60.8503 22.6807 60.9688 22.7217C61.0872 22.7627 61.2262 22.7832 61.3857 22.7832C61.4997 22.7832 61.609 22.7764 61.7139 22.7627C61.8187 22.749 61.903 22.7354 61.9668 22.7217L61.9736 23.9795C61.8369 24.0205 61.6774 24.057 61.4951 24.0889C61.3174 24.1208 61.1123 24.1367 60.8799 24.1367C60.5016 24.1367 60.1667 24.0706 59.875 23.9385C59.5833 23.8018 59.3555 23.5807 59.1914 23.2754C59.0273 22.9701 58.9453 22.5645 58.9453 22.0586V14.792ZM67.3535 22.5166V18.9893C67.3535 18.7249 67.3057 18.4971 67.21 18.3057C67.1143 18.1143 66.9684 17.9661 66.7725 17.8613C66.5811 17.7565 66.3395 17.7041 66.0479 17.7041C65.779 17.7041 65.5465 17.7497 65.3506 17.8408C65.1546 17.932 65.002 18.055 64.8926 18.21C64.7832 18.3649 64.7285 18.5404 64.7285 18.7363H63.0879C63.0879 18.4447 63.1585 18.1621 63.2998 17.8887C63.4411 17.6152 63.6462 17.3714 63.915 17.1572C64.1839 16.943 64.5052 16.7744 64.8789 16.6514C65.2526 16.5283 65.6719 16.4668 66.1367 16.4668C66.6927 16.4668 67.1849 16.5602 67.6133 16.7471C68.0462 16.9339 68.3857 17.2165 68.6318 17.5947C68.8825 17.9684 69.0078 18.4378 69.0078 19.0029V22.291C69.0078 22.6283 69.0306 22.9313 69.0762 23.2002C69.1263 23.4645 69.1969 23.6947 69.2881 23.8906V24H67.5996C67.5221 23.8223 67.4606 23.5967 67.415 23.3232C67.374 23.0452 67.3535 22.7764 67.3535 22.5166ZM67.5928 19.502L67.6064 20.5205H66.4238C66.1185 20.5205 65.8496 20.5501 65.6172 20.6094C65.3848 20.6641 65.1911 20.7461 65.0361 20.8555C64.8812 20.9648 64.765 21.097 64.6875 21.252C64.61 21.4069 64.5713 21.5824 64.5713 21.7783C64.5713 21.9743 64.6169 22.1543 64.708 22.3184C64.7992 22.4779 64.9313 22.6032 65.1045 22.6943C65.2822 22.7855 65.4964 22.8311 65.7471 22.8311C66.0843 22.8311 66.3783 22.7627 66.6289 22.626C66.8841 22.4847 67.0846 22.3138 67.2305 22.1133C67.3763 21.9082 67.4538 21.7145 67.4629 21.5322L67.9961 22.2637C67.9414 22.4505 67.848 22.651 67.7158 22.8652C67.5837 23.0794 67.4105 23.2845 67.1963 23.4805C66.9867 23.6719 66.7337 23.8291 66.4375 23.9521C66.1458 24.0752 65.8086 24.1367 65.4258 24.1367C64.9427 24.1367 64.512 24.041 64.1338 23.8496C63.7555 23.6536 63.4593 23.3916 63.2451 23.0635C63.0309 22.7308 62.9238 22.3548 62.9238 21.9355C62.9238 21.5436 62.9967 21.1973 63.1426 20.8965C63.293 20.5911 63.5117 20.3359 63.7988 20.1309C64.0905 19.9258 64.446 19.7708 64.8652 19.666C65.2845 19.5566 65.763 19.502 66.3008 19.502H67.5928ZM72.3848 18.0117V24H70.7373V16.6035H72.3096L72.3848 18.0117ZM74.6475 16.5557L74.6338 18.0869C74.5335 18.0687 74.4242 18.055 74.3057 18.0459C74.1917 18.0368 74.0778 18.0322 73.9639 18.0322C73.6813 18.0322 73.4329 18.0732 73.2188 18.1553C73.0046 18.2327 72.8245 18.3467 72.6787 18.4971C72.5374 18.6429 72.4281 18.8206 72.3506 19.0303C72.2731 19.2399 72.2275 19.4746 72.2139 19.7344L71.8379 19.7617C71.8379 19.2969 71.8835 18.8662 71.9746 18.4697C72.0658 18.0732 72.2025 17.7246 72.3848 17.4238C72.5716 17.123 72.804 16.8883 73.082 16.7197C73.3646 16.5511 73.6904 16.4668 74.0596 16.4668C74.1598 16.4668 74.2669 16.4759 74.3809 16.4941C74.4993 16.5124 74.5882 16.5329 74.6475 16.5557ZM79.4121 16.6035V17.8066H75.2422V16.6035H79.4121ZM76.4453 14.792H78.0928V21.9561C78.0928 22.1839 78.1247 22.3594 78.1885 22.4824C78.2568 22.6009 78.3503 22.6807 78.4688 22.7217C78.5872 22.7627 78.7262 22.7832 78.8857 22.7832C78.9997 22.7832 79.109 22.7764 79.2139 22.7627C79.3187 22.749 79.403 22.7354 79.4668 22.7217L79.4736 23.9795C79.3369 24.0205 79.1774 24.057 78.9951 24.0889C78.8174 24.1208 78.6123 24.1367 78.3799 24.1367C78.0016 24.1367 77.6667 24.0706 77.375 23.9385C77.0833 23.8018 76.8555 23.5807 76.6914 23.2754C76.5273 22.9701 76.4453 22.5645 76.4453 22.0586V14.792ZM83.9443 24.1367C83.3975 24.1367 82.903 24.0479 82.4609 23.8701C82.0234 23.6878 81.6497 23.4349 81.3398 23.1113C81.0345 22.7878 80.7998 22.4072 80.6357 21.9697C80.4717 21.5322 80.3896 21.0605 80.3896 20.5547V20.2812C80.3896 19.7025 80.474 19.1784 80.6426 18.709C80.8112 18.2396 81.0459 17.8385 81.3467 17.5059C81.6475 17.1686 82.0029 16.9111 82.4131 16.7334C82.8232 16.5557 83.2676 16.4668 83.7461 16.4668C84.2747 16.4668 84.7373 16.5557 85.1338 16.7334C85.5303 16.9111 85.8584 17.1618 86.1182 17.4854C86.3825 17.8044 86.5785 18.1849 86.7061 18.627C86.8382 19.069 86.9043 19.5566 86.9043 20.0898V20.7939H81.1895V19.6113H85.2773V19.4814C85.2682 19.1852 85.209 18.9072 85.0996 18.6475C84.9948 18.3877 84.833 18.1781 84.6143 18.0186C84.3955 17.859 84.1038 17.7793 83.7393 17.7793C83.4658 17.7793 83.222 17.8385 83.0078 17.957C82.7982 18.071 82.6227 18.2373 82.4814 18.4561C82.3402 18.6748 82.2308 18.9391 82.1533 19.249C82.0804 19.5544 82.0439 19.8984 82.0439 20.2812V20.5547C82.0439 20.8783 82.0872 21.179 82.1738 21.457C82.265 21.7305 82.3971 21.9697 82.5703 22.1748C82.7435 22.3799 82.9531 22.5417 83.1992 22.6602C83.4453 22.7741 83.7256 22.8311 84.04 22.8311C84.4365 22.8311 84.7897 22.7513 85.0996 22.5918C85.4095 22.4323 85.6784 22.2067 85.9062 21.915L86.7744 22.7559C86.6149 22.9883 86.4076 23.2116 86.1523 23.4258C85.8971 23.6354 85.585 23.8063 85.2158 23.9385C84.8512 24.0706 84.4274 24.1367 83.9443 24.1367ZM92.7012 22.4688V13.5H94.3555V24H92.8584L92.7012 22.4688ZM87.8887 20.3838V20.2402C87.8887 19.6797 87.9548 19.1693 88.0869 18.709C88.2191 18.2441 88.4105 17.8454 88.6611 17.5127C88.9118 17.1755 89.2171 16.918 89.5771 16.7402C89.9372 16.5579 90.3428 16.4668 90.7939 16.4668C91.2406 16.4668 91.6325 16.5534 91.9697 16.7266C92.307 16.8997 92.5941 17.1481 92.8311 17.4717C93.068 17.7907 93.2572 18.1735 93.3984 18.6201C93.5397 19.0622 93.64 19.5544 93.6992 20.0967V20.5547C93.64 21.0833 93.5397 21.5664 93.3984 22.0039C93.2572 22.4414 93.068 22.8197 92.8311 23.1387C92.5941 23.4577 92.3047 23.7038 91.9629 23.877C91.6257 24.0501 91.2314 24.1367 90.7803 24.1367C90.3337 24.1367 89.9303 24.0433 89.5703 23.8564C89.2148 23.6696 88.9118 23.4076 88.6611 23.0703C88.4105 22.7331 88.2191 22.3366 88.0869 21.8809C87.9548 21.4206 87.8887 20.9215 87.8887 20.3838ZM89.5361 20.2402V20.3838C89.5361 20.721 89.5658 21.0355 89.625 21.3271C89.6888 21.6188 89.7868 21.8763 89.9189 22.0996C90.0511 22.3184 90.222 22.4915 90.4316 22.6191C90.6458 22.7422 90.901 22.8037 91.1973 22.8037C91.571 22.8037 91.8786 22.7217 92.1201 22.5576C92.3617 22.3936 92.5508 22.1725 92.6875 21.8945C92.8288 21.612 92.9245 21.2975 92.9746 20.9512V19.7139C92.9473 19.445 92.8903 19.1943 92.8037 18.9619C92.7217 18.7295 92.61 18.5267 92.4688 18.3535C92.3275 18.1758 92.152 18.0391 91.9424 17.9434C91.7373 17.8431 91.4935 17.793 91.2109 17.793C90.9102 17.793 90.6549 17.8568 90.4453 17.9844C90.2357 18.112 90.0625 18.2874 89.9258 18.5107C89.7936 18.734 89.6956 18.9938 89.6318 19.29C89.568 19.5863 89.5361 19.903 89.5361 20.2402Z" fill="black"/>
<g clip-path="url(#clip0_2_44)">
<g clip-path="url(#clip1_2_44)">
<path d="M110 13L108.943 14.0575L113.128 18.25H104V19.75H113.128L108.943 23.9425L110 25L116 19L110 13Z" fill="black"/>
</g>
</g>
</g>
<defs>
<filter id="filter0_d_2_44" x="0" y="0" width="141" height="46" filterUnits="userSpaceOnUse" color-interpolation-filters="sRGB">
<feFlood flood-opacity="0" result="BackgroundImageFix"/>
<feColorMatrix in="SourceAlpha" type="matrix" values="0 0 0 0 0 0 0 0 0 0 0 0 0 0 0 0 0 0 127 0" result="hardAlpha"/>
<feOffset dy="4"/>
<feGaussianBlur stdDeviation="2"/>
<feComposite in2="hardAlpha" operator="out"/>
<feColorMatrix type="matrix" values="0 0 0 0 0 0 0 0 0 0 0 0 0 0 0 0 0 0 0.1 0"/>
<feBlend mode="normal" in2="BackgroundImageFix" result="effect1_dropShadow_2_44"/>
<feBlend mode="normal" in="SourceGraphic" in2="effect1_dropShadow_2_44" result="shape"/>
</filter>
<clipPath id="clip0_2_44">
<rect width="18" height="18" fill="white" transform="translate(99 10)"/>
</clipPath>
<clipPath id="clip1_2_44">
<rect width="18" height="18" fill="white" transform="translate(101 10)"/>
</clipPath>
</defs>
</svg>
