<svg width="170" height="36" viewBox="0 0 170 36" fill="none" xmlns="http://www.w3.org/2000/svg">
<rect width="170" height="36" rx="16" fill="#BEE1E6"/>
<path d="M20.1064 13.0469V23H18.4043V13.0469H20.1064ZM23.2305 13.0469V14.4141H15.3076V13.0469H23.2305ZM23.1074 19.3838V19.2266C23.1074 18.6934 23.1849 18.1989 23.3398 17.7432C23.4948 17.2829 23.7181 16.8841 24.0098 16.5469C24.306 16.2051 24.666 15.9408 25.0898 15.7539C25.5182 15.5625 26.0013 15.4668 26.5391 15.4668C27.0814 15.4668 27.5645 15.5625 27.9883 15.7539C28.4167 15.9408 28.779 16.2051 29.0752 16.5469C29.3714 16.8841 29.597 17.2829 29.752 17.7432C29.9069 18.1989 29.9844 18.6934 29.9844 19.2266V19.3838C29.9844 19.917 29.9069 20.4115 29.752 20.8672C29.597 21.3229 29.3714 21.7217 29.0752 22.0635C28.779 22.4007 28.4189 22.665 27.9951 22.8564C27.5713 23.0433 27.0905 23.1367 26.5527 23.1367C26.0104 23.1367 25.5251 23.0433 25.0967 22.8564C24.6729 22.665 24.3128 22.4007 24.0166 22.0635C23.7204 21.7217 23.4948 21.3229 23.3398 20.8672C23.1849 20.4115 23.1074 19.917 23.1074 19.3838ZM24.7549 19.2266V19.3838C24.7549 19.7165 24.7891 20.0309 24.8574 20.3271C24.9258 20.6234 25.0329 20.8831 25.1787 21.1064C25.3245 21.3298 25.5114 21.5052 25.7393 21.6328C25.9671 21.7604 26.2383 21.8242 26.5527 21.8242C26.8581 21.8242 27.1224 21.7604 27.3457 21.6328C27.5736 21.5052 27.7604 21.3298 27.9062 21.1064C28.0521 20.8831 28.1592 20.6234 28.2275 20.3271C28.3005 20.0309 28.3369 19.7165 28.3369 19.3838V19.2266C28.3369 18.8984 28.3005 18.5885 28.2275 18.2969C28.1592 18.0007 28.0498 17.7386 27.8994 17.5107C27.7536 17.2829 27.5667 17.1051 27.3389 16.9775C27.1156 16.8454 26.849 16.7793 26.5391 16.7793C26.2292 16.7793 25.9603 16.8454 25.7324 16.9775C25.5091 17.1051 25.3245 17.2829 25.1787 17.5107C25.0329 17.7386 24.9258 18.0007 24.8574 18.2969C24.7891 18.5885 24.7549 18.8984 24.7549 19.2266ZM33.0195 17.0254V25.8438H31.3721V15.6035H32.8896L33.0195 17.0254ZM37.8389 19.2334V19.377C37.8389 19.9147 37.7751 20.4137 37.6475 20.874C37.5244 21.3298 37.3398 21.7285 37.0938 22.0703C36.8522 22.4076 36.5537 22.6696 36.1982 22.8564C35.8428 23.0433 35.4326 23.1367 34.9678 23.1367C34.5075 23.1367 34.1042 23.0524 33.7578 22.8838C33.416 22.7106 33.1266 22.4668 32.8896 22.1523C32.6527 21.8379 32.4613 21.4688 32.3154 21.0449C32.1742 20.6165 32.0739 20.1471 32.0146 19.6367V19.083C32.0739 18.5407 32.1742 18.0485 32.3154 17.6064C32.4613 17.1644 32.6527 16.7839 32.8896 16.4648C33.1266 16.1458 33.416 15.8997 33.7578 15.7266C34.0996 15.5534 34.4984 15.4668 34.9541 15.4668C35.4189 15.4668 35.8314 15.5579 36.1914 15.7402C36.5514 15.918 36.8545 16.1732 37.1006 16.5059C37.3467 16.834 37.5312 17.2305 37.6543 17.6953C37.7773 18.1556 37.8389 18.6683 37.8389 19.2334ZM36.1914 19.377V19.2334C36.1914 18.8916 36.1595 18.5749 36.0957 18.2832C36.0319 17.987 35.9316 17.7272 35.7949 17.5039C35.6582 17.2806 35.4827 17.1074 35.2686 16.9844C35.0589 16.8568 34.806 16.793 34.5098 16.793C34.2181 16.793 33.9674 16.8431 33.7578 16.9434C33.5482 17.0391 33.3727 17.1735 33.2314 17.3467C33.0902 17.5199 32.9808 17.7227 32.9033 17.9551C32.8258 18.1829 32.7712 18.4313 32.7393 18.7002V20.0264C32.7939 20.3545 32.8874 20.6553 33.0195 20.9287C33.1517 21.2021 33.3385 21.4209 33.5801 21.585C33.8262 21.7445 34.1406 21.8242 34.5234 21.8242C34.8197 21.8242 35.0726 21.7604 35.2822 21.6328C35.4919 21.5052 35.6628 21.3298 35.7949 21.1064C35.9316 20.8786 36.0319 20.6165 36.0957 20.3203C36.1595 20.0241 36.1914 19.7096 36.1914 19.377ZM49.125 21.6396V23H44.1279V21.6396H49.125ZM44.6064 13.0469V23H42.8906V13.0469H44.6064ZM53.5479 23.1367C53.001 23.1367 52.5065 23.0479 52.0645 22.8701C51.627 22.6878 51.2533 22.4349 50.9434 22.1113C50.638 21.7878 50.4033 21.4072 50.2393 20.9697C50.0752 20.5322 49.9932 20.0605 49.9932 19.5547V19.2812C49.9932 18.7025 50.0775 18.1784 50.2461 17.709C50.4147 17.2396 50.6494 16.8385 50.9502 16.5059C51.251 16.1686 51.6064 15.9111 52.0166 15.7334C52.4268 15.5557 52.8711 15.4668 53.3496 15.4668C53.8783 15.4668 54.3408 15.5557 54.7373 15.7334C55.1338 15.9111 55.4619 16.1618 55.7217 16.4854C55.986 16.8044 56.182 17.1849 56.3096 17.627C56.4417 18.069 56.5078 18.5566 56.5078 19.0898V19.7939H50.793V18.6113H54.8809V18.4814C54.8717 18.1852 54.8125 17.9072 54.7031 17.6475C54.5983 17.3877 54.4365 17.1781 54.2178 17.0186C53.999 16.859 53.7074 16.7793 53.3428 16.7793C53.0693 16.7793 52.8255 16.8385 52.6113 16.957C52.4017 17.071 52.2262 17.2373 52.085 17.4561C51.9437 17.6748 51.8343 17.9391 51.7568 18.249C51.6839 18.5544 51.6475 18.8984 51.6475 19.2812V19.5547C51.6475 19.8783 51.6908 20.179 51.7773 20.457C51.8685 20.7305 52.0007 20.9697 52.1738 21.1748C52.347 21.3799 52.5566 21.5417 52.8027 21.6602C53.0488 21.7741 53.3291 21.8311 53.6436 21.8311C54.04 21.8311 54.3932 21.7513 54.7031 21.5918C55.013 21.4323 55.2819 21.2067 55.5098 20.915L56.3779 21.7559C56.2184 21.9883 56.0111 22.2116 55.7559 22.4258C55.5007 22.6354 55.1885 22.8063 54.8193 22.9385C54.4548 23.0706 54.0309 23.1367 53.5479 23.1367ZM61.9629 21.5166V17.9893C61.9629 17.7249 61.915 17.4971 61.8193 17.3057C61.7236 17.1143 61.5778 16.9661 61.3818 16.8613C61.1904 16.7565 60.9489 16.7041 60.6572 16.7041C60.3883 16.7041 60.1559 16.7497 59.96 16.8408C59.764 16.932 59.6113 17.055 59.502 17.21C59.3926 17.3649 59.3379 17.5404 59.3379 17.7363H57.6973C57.6973 17.4447 57.7679 17.1621 57.9092 16.8887C58.0505 16.6152 58.2555 16.3714 58.5244 16.1572C58.7933 15.943 59.1146 15.7744 59.4883 15.6514C59.862 15.5283 60.2812 15.4668 60.7461 15.4668C61.3021 15.4668 61.7943 15.5602 62.2227 15.7471C62.6556 15.9339 62.9951 16.2165 63.2412 16.5947C63.4919 16.9684 63.6172 17.4378 63.6172 18.0029V21.291C63.6172 21.6283 63.64 21.9313 63.6855 22.2002C63.7357 22.4645 63.8063 22.6947 63.8975 22.8906V23H62.209C62.1315 22.8223 62.07 22.5967 62.0244 22.3232C61.9834 22.0452 61.9629 21.7764 61.9629 21.5166ZM62.2021 18.502L62.2158 19.5205H61.0332C60.7279 19.5205 60.459 19.5501 60.2266 19.6094C59.9941 19.6641 59.8005 19.7461 59.6455 19.8555C59.4906 19.9648 59.3743 20.097 59.2969 20.252C59.2194 20.4069 59.1807 20.5824 59.1807 20.7783C59.1807 20.9743 59.2262 21.1543 59.3174 21.3184C59.4085 21.4779 59.5407 21.6032 59.7139 21.6943C59.8916 21.7855 60.1058 21.8311 60.3564 21.8311C60.6937 21.8311 60.9876 21.7627 61.2383 21.626C61.4935 21.4847 61.694 21.3138 61.8398 21.1133C61.9857 20.9082 62.0632 20.7145 62.0723 20.5322L62.6055 21.2637C62.5508 21.4505 62.4574 21.651 62.3252 21.8652C62.193 22.0794 62.0199 22.2845 61.8057 22.4805C61.596 22.6719 61.3431 22.8291 61.0469 22.9521C60.7552 23.0752 60.418 23.1367 60.0352 23.1367C59.5521 23.1367 59.1214 23.041 58.7432 22.8496C58.3649 22.6536 58.0687 22.3916 57.8545 22.0635C57.6403 21.7308 57.5332 21.3548 57.5332 20.9355C57.5332 20.5436 57.6061 20.1973 57.752 19.8965C57.9023 19.5911 58.1211 19.3359 58.4082 19.1309C58.6999 18.9258 59.0553 18.7708 59.4746 18.666C59.8939 18.5566 60.3724 18.502 60.9102 18.502H62.2021ZM69.8516 21.4688V12.5H71.5059V23H70.0088L69.8516 21.4688ZM65.0391 19.3838V19.2402C65.0391 18.6797 65.1051 18.1693 65.2373 17.709C65.3695 17.2441 65.5609 16.8454 65.8115 16.5127C66.0622 16.1755 66.3675 15.918 66.7275 15.7402C67.0876 15.5579 67.4932 15.4668 67.9443 15.4668C68.391 15.4668 68.7829 15.5534 69.1201 15.7266C69.4574 15.8997 69.7445 16.1481 69.9814 16.4717C70.2184 16.7907 70.4076 17.1735 70.5488 17.6201C70.6901 18.0622 70.7904 18.5544 70.8496 19.0967V19.5547C70.7904 20.0833 70.6901 20.5664 70.5488 21.0039C70.4076 21.4414 70.2184 21.8197 69.9814 22.1387C69.7445 22.4577 69.4551 22.7038 69.1133 22.877C68.776 23.0501 68.3818 23.1367 67.9307 23.1367C67.484 23.1367 67.0807 23.0433 66.7207 22.8564C66.3652 22.6696 66.0622 22.4076 65.8115 22.0703C65.5609 21.7331 65.3695 21.3366 65.2373 20.8809C65.1051 20.4206 65.0391 19.9215 65.0391 19.3838ZM66.6865 19.2402V19.3838C66.6865 19.721 66.7161 20.0355 66.7754 20.3271C66.8392 20.6188 66.9372 20.8763 67.0693 21.0996C67.2015 21.3184 67.3724 21.4915 67.582 21.6191C67.7962 21.7422 68.0514 21.8037 68.3477 21.8037C68.7214 21.8037 69.029 21.7217 69.2705 21.5576C69.512 21.3936 69.7012 21.1725 69.8379 20.8945C69.9792 20.612 70.0749 20.2975 70.125 19.9512V18.7139C70.0977 18.445 70.0407 18.1943 69.9541 17.9619C69.8721 17.7295 69.7604 17.5267 69.6191 17.3535C69.4779 17.1758 69.3024 17.0391 69.0928 16.9434C68.8877 16.8431 68.6439 16.793 68.3613 16.793C68.0605 16.793 67.8053 16.8568 67.5957 16.9844C67.3861 17.112 67.2129 17.2874 67.0762 17.5107C66.944 17.734 66.846 17.9938 66.7822 18.29C66.7184 18.5863 66.6865 18.903 66.6865 19.2402ZM74.9922 15.6035V23H73.3379V15.6035H74.9922ZM73.2285 13.6621C73.2285 13.4115 73.3105 13.2041 73.4746 13.04C73.6432 12.8714 73.8757 12.7871 74.1719 12.7871C74.4635 12.7871 74.6937 12.8714 74.8623 13.04C75.0309 13.2041 75.1152 13.4115 75.1152 13.6621C75.1152 13.9082 75.0309 14.1133 74.8623 14.2773C74.6937 14.4414 74.4635 14.5234 74.1719 14.5234C73.8757 14.5234 73.6432 14.4414 73.4746 14.2773C73.3105 14.1133 73.2285 13.9082 73.2285 13.6621ZM78.4307 17.1826V23H76.7832V15.6035H78.335L78.4307 17.1826ZM78.1367 19.0283L77.6035 19.0215C77.6081 18.4974 77.681 18.0166 77.8223 17.5791C77.9681 17.1416 78.1686 16.7656 78.4238 16.4512C78.6836 16.1367 78.9935 15.8952 79.3535 15.7266C79.7135 15.5534 80.1146 15.4668 80.5566 15.4668C80.9121 15.4668 81.2334 15.5169 81.5205 15.6172C81.8122 15.7129 82.0605 15.8701 82.2656 16.0889C82.4753 16.3076 82.6348 16.5924 82.7441 16.9434C82.8535 17.2897 82.9082 17.7158 82.9082 18.2217V23H81.2539V18.2148C81.2539 17.8594 81.2015 17.5791 81.0967 17.374C80.9964 17.1644 80.8483 17.0163 80.6523 16.9297C80.4609 16.8385 80.2217 16.793 79.9346 16.793C79.652 16.793 79.3991 16.8522 79.1758 16.9707C78.9525 17.0892 78.7633 17.251 78.6084 17.4561C78.458 17.6611 78.3418 17.8981 78.2598 18.167C78.1777 18.4359 78.1367 18.723 78.1367 19.0283ZM89.3271 15.6035H90.8242V22.7949C90.8242 23.4603 90.6829 24.0254 90.4004 24.4902C90.1178 24.9551 89.7236 25.3083 89.2178 25.5498C88.7119 25.7959 88.1263 25.9189 87.4609 25.9189C87.1784 25.9189 86.8639 25.8779 86.5176 25.7959C86.1758 25.7139 85.8431 25.5817 85.5195 25.3994C85.2005 25.2217 84.9339 24.987 84.7197 24.6953L85.4922 23.7246C85.7565 24.0391 86.0482 24.2692 86.3672 24.415C86.6862 24.5609 87.0212 24.6338 87.3721 24.6338C87.7503 24.6338 88.0716 24.5632 88.3359 24.4219C88.6048 24.2852 88.8122 24.0824 88.958 23.8135C89.1038 23.5446 89.1768 23.2165 89.1768 22.8291V17.2783L89.3271 15.6035ZM84.3027 19.3838V19.2402C84.3027 18.6797 84.3711 18.1693 84.5078 17.709C84.6445 17.2441 84.8405 16.8454 85.0957 16.5127C85.3509 16.1755 85.6608 15.918 86.0254 15.7402C86.39 15.5579 86.8024 15.4668 87.2627 15.4668C87.7412 15.4668 88.1491 15.5534 88.4863 15.7266C88.8281 15.8997 89.113 16.1481 89.3408 16.4717C89.5687 16.7907 89.7464 17.1735 89.874 17.6201C90.0062 18.0622 90.1042 18.5544 90.168 19.0967V19.5547C90.1087 20.0833 90.0085 20.5664 89.8672 21.0039C89.7259 21.4414 89.5391 21.8197 89.3066 22.1387C89.0742 22.4577 88.7871 22.7038 88.4453 22.877C88.1081 23.0501 87.7093 23.1367 87.249 23.1367C86.7979 23.1367 86.39 23.0433 86.0254 22.8564C85.6654 22.6696 85.3555 22.4076 85.0957 22.0703C84.8405 21.7331 84.6445 21.3366 84.5078 20.8809C84.3711 20.4206 84.3027 19.9215 84.3027 19.3838ZM85.9502 19.2402V19.3838C85.9502 19.721 85.9821 20.0355 86.0459 20.3271C86.1143 20.6188 86.2168 20.8763 86.3535 21.0996C86.4948 21.3184 86.6725 21.4915 86.8867 21.6191C87.1055 21.7422 87.363 21.8037 87.6592 21.8037C88.0465 21.8037 88.3633 21.7217 88.6094 21.5576C88.86 21.3936 89.0514 21.1725 89.1836 20.8945C89.3203 20.612 89.416 20.2975 89.4707 19.9512V18.7139C89.4434 18.445 89.3864 18.1943 89.2998 17.9619C89.2178 17.7295 89.1061 17.5267 88.9648 17.3535C88.8236 17.1758 88.6458 17.0391 88.4316 16.9434C88.2174 16.8431 87.9645 16.793 87.6729 16.793C87.3766 16.793 87.1191 16.8568 86.9004 16.9844C86.6816 17.112 86.5016 17.2874 86.3604 17.5107C86.2236 17.734 86.1211 17.9938 86.0527 18.29C85.9844 18.5863 85.9502 18.903 85.9502 19.2402ZM102.062 19.7598H103.771C103.717 20.4115 103.535 20.9925 103.225 21.5029C102.915 22.0088 102.479 22.4076 101.919 22.6992C101.358 22.9909 100.677 23.1367 99.875 23.1367C99.2598 23.1367 98.7061 23.0273 98.2139 22.8086C97.7217 22.5853 97.3001 22.2708 96.9492 21.8652C96.5983 21.4551 96.3294 20.9606 96.1426 20.3818C95.9603 19.8031 95.8691 19.1559 95.8691 18.4404V17.6133C95.8691 16.8978 95.9626 16.2507 96.1494 15.6719C96.3408 15.0931 96.6143 14.5986 96.9697 14.1885C97.3252 13.7738 97.7513 13.457 98.248 13.2383C98.7493 13.0195 99.3122 12.9102 99.9365 12.9102C100.729 12.9102 101.399 13.056 101.946 13.3477C102.493 13.6393 102.917 14.0426 103.218 14.5576C103.523 15.0726 103.71 15.6628 103.778 16.3281H102.069C102.024 15.8997 101.924 15.5329 101.769 15.2275C101.618 14.9222 101.395 14.6898 101.099 14.5303C100.802 14.3662 100.415 14.2842 99.9365 14.2842C99.5446 14.2842 99.2028 14.3571 98.9111 14.5029C98.6195 14.6488 98.3757 14.863 98.1797 15.1455C97.9837 15.4281 97.8356 15.7767 97.7354 16.1914C97.6396 16.6016 97.5918 17.071 97.5918 17.5996V18.4404C97.5918 18.9417 97.6351 19.3975 97.7217 19.8076C97.8128 20.2132 97.9495 20.5618 98.1318 20.8535C98.3187 21.1452 98.5557 21.3708 98.8428 21.5303C99.1299 21.6898 99.474 21.7695 99.875 21.7695C100.363 21.7695 100.757 21.6921 101.058 21.5371C101.363 21.3822 101.593 21.1566 101.748 20.8604C101.908 20.5596 102.012 20.1927 102.062 19.7598ZM104.852 19.3838V19.2266C104.852 18.6934 104.929 18.1989 105.084 17.7432C105.239 17.2829 105.462 16.8841 105.754 16.5469C106.05 16.2051 106.41 15.9408 106.834 15.7539C107.262 15.5625 107.745 15.4668 108.283 15.4668C108.826 15.4668 109.309 15.5625 109.732 15.7539C110.161 15.9408 110.523 16.2051 110.819 16.5469C111.116 16.8841 111.341 17.2829 111.496 17.7432C111.651 18.1989 111.729 18.6934 111.729 19.2266V19.3838C111.729 19.917 111.651 20.4115 111.496 20.8672C111.341 21.3229 111.116 21.7217 110.819 22.0635C110.523 22.4007 110.163 22.665 109.739 22.8564C109.315 23.0433 108.835 23.1367 108.297 23.1367C107.755 23.1367 107.269 23.0433 106.841 22.8564C106.417 22.665 106.057 22.4007 105.761 22.0635C105.465 21.7217 105.239 21.3229 105.084 20.8672C104.929 20.4115 104.852 19.917 104.852 19.3838ZM106.499 19.2266V19.3838C106.499 19.7165 106.533 20.0309 106.602 20.3271C106.67 20.6234 106.777 20.8831 106.923 21.1064C107.069 21.3298 107.256 21.5052 107.483 21.6328C107.711 21.7604 107.982 21.8242 108.297 21.8242C108.602 21.8242 108.867 21.7604 109.09 21.6328C109.318 21.5052 109.505 21.3298 109.65 21.1064C109.796 20.8831 109.903 20.6234 109.972 20.3271C110.045 20.0309 110.081 19.7165 110.081 19.3838V19.2266C110.081 18.8984 110.045 18.5885 109.972 18.2969C109.903 18.0007 109.794 17.7386 109.644 17.5107C109.498 17.2829 109.311 17.1051 109.083 16.9775C108.86 16.8454 108.593 16.7793 108.283 16.7793C107.973 16.7793 107.704 16.8454 107.477 16.9775C107.253 17.1051 107.069 17.2829 106.923 17.5107C106.777 17.7386 106.67 18.0007 106.602 18.2969C106.533 18.5885 106.499 18.8984 106.499 19.2266ZM114.757 17.1074V23H113.109V15.6035H114.661L114.757 17.1074ZM114.49 19.0283L113.93 19.0215C113.93 18.5111 113.993 18.0394 114.121 17.6064C114.249 17.1735 114.436 16.7975 114.682 16.4785C114.928 16.1549 115.233 15.9066 115.598 15.7334C115.967 15.5557 116.393 15.4668 116.876 15.4668C117.213 15.4668 117.521 15.5169 117.799 15.6172C118.081 15.7129 118.325 15.8656 118.53 16.0752C118.74 16.2848 118.899 16.5537 119.009 16.8818C119.123 17.21 119.18 17.6064 119.18 18.0713V23H117.532V18.2148C117.532 17.8548 117.478 17.5723 117.368 17.3672C117.263 17.1621 117.111 17.0163 116.91 16.9297C116.714 16.8385 116.479 16.793 116.206 16.793C115.896 16.793 115.632 16.8522 115.413 16.9707C115.199 17.0892 115.023 17.251 114.887 17.4561C114.75 17.6611 114.65 17.8981 114.586 18.167C114.522 18.4359 114.49 18.723 114.49 19.0283ZM119.077 18.5908L118.305 18.7617C118.305 18.3151 118.366 17.8936 118.489 17.4971C118.617 17.096 118.801 16.7451 119.043 16.4443C119.289 16.139 119.592 15.8997 119.952 15.7266C120.312 15.5534 120.725 15.4668 121.189 15.4668C121.568 15.4668 121.905 15.5192 122.201 15.624C122.502 15.7243 122.757 15.8838 122.967 16.1025C123.176 16.3213 123.336 16.6061 123.445 16.957C123.555 17.3034 123.609 17.7227 123.609 18.2148V23H121.955V18.208C121.955 17.8343 121.9 17.5449 121.791 17.3398C121.686 17.1348 121.536 16.9935 121.34 16.916C121.144 16.834 120.909 16.793 120.636 16.793C120.381 16.793 120.155 16.8408 119.959 16.9365C119.768 17.0277 119.606 17.1576 119.474 17.3262C119.341 17.4902 119.241 17.6794 119.173 17.8936C119.109 18.1077 119.077 18.3402 119.077 18.5908ZM126.959 17.0254V25.8438H125.312V15.6035H126.829L126.959 17.0254ZM131.778 19.2334V19.377C131.778 19.9147 131.715 20.4137 131.587 20.874C131.464 21.3298 131.279 21.7285 131.033 22.0703C130.792 22.4076 130.493 22.6696 130.138 22.8564C129.782 23.0433 129.372 23.1367 128.907 23.1367C128.447 23.1367 128.044 23.0524 127.697 22.8838C127.355 22.7106 127.066 22.4668 126.829 22.1523C126.592 21.8379 126.401 21.4688 126.255 21.0449C126.114 20.6165 126.013 20.1471 125.954 19.6367V19.083C126.013 18.5407 126.114 18.0485 126.255 17.6064C126.401 17.1644 126.592 16.7839 126.829 16.4648C127.066 16.1458 127.355 15.8997 127.697 15.7266C128.039 15.5534 128.438 15.4668 128.894 15.4668C129.358 15.4668 129.771 15.5579 130.131 15.7402C130.491 15.918 130.794 16.1732 131.04 16.5059C131.286 16.834 131.471 17.2305 131.594 17.6953C131.717 18.1556 131.778 18.6683 131.778 19.2334ZM130.131 19.377V19.2334C130.131 18.8916 130.099 18.5749 130.035 18.2832C129.971 17.987 129.871 17.7272 129.734 17.5039C129.598 17.2806 129.422 17.1074 129.208 16.9844C128.998 16.8568 128.745 16.793 128.449 16.793C128.158 16.793 127.907 16.8431 127.697 16.9434C127.488 17.0391 127.312 17.1735 127.171 17.3467C127.03 17.5199 126.92 17.7227 126.843 17.9551C126.765 18.1829 126.711 18.4313 126.679 18.7002V20.0264C126.733 20.3545 126.827 20.6553 126.959 20.9287C127.091 21.2021 127.278 21.4209 127.52 21.585C127.766 21.7445 128.08 21.8242 128.463 21.8242C128.759 21.8242 129.012 21.7604 129.222 21.6328C129.431 21.5052 129.602 21.3298 129.734 21.1064C129.871 20.8786 129.971 20.6165 130.035 20.3203C130.099 20.0241 130.131 19.7096 130.131 19.377ZM137.35 21.5166V17.9893C137.35 17.7249 137.302 17.4971 137.206 17.3057C137.11 17.1143 136.965 16.9661 136.769 16.8613C136.577 16.7565 136.336 16.7041 136.044 16.7041C135.775 16.7041 135.543 16.7497 135.347 16.8408C135.151 16.932 134.998 17.055 134.889 17.21C134.779 17.3649 134.725 17.5404 134.725 17.7363H133.084C133.084 17.4447 133.155 17.1621 133.296 16.8887C133.437 16.6152 133.642 16.3714 133.911 16.1572C134.18 15.943 134.501 15.7744 134.875 15.6514C135.249 15.5283 135.668 15.4668 136.133 15.4668C136.689 15.4668 137.181 15.5602 137.609 15.7471C138.042 15.9339 138.382 16.2165 138.628 16.5947C138.879 16.9684 139.004 17.4378 139.004 18.0029V21.291C139.004 21.6283 139.027 21.9313 139.072 22.2002C139.122 22.4645 139.193 22.6947 139.284 22.8906V23H137.596C137.518 22.8223 137.457 22.5967 137.411 22.3232C137.37 22.0452 137.35 21.7764 137.35 21.5166ZM137.589 18.502L137.603 19.5205H136.42C136.115 19.5205 135.846 19.5501 135.613 19.6094C135.381 19.6641 135.187 19.7461 135.032 19.8555C134.877 19.9648 134.761 20.097 134.684 20.252C134.606 20.4069 134.567 20.5824 134.567 20.7783C134.567 20.9743 134.613 21.1543 134.704 21.3184C134.795 21.4779 134.927 21.6032 135.101 21.6943C135.278 21.7855 135.493 21.8311 135.743 21.8311C136.08 21.8311 136.374 21.7627 136.625 21.626C136.88 21.4847 137.081 21.3138 137.227 21.1133C137.372 20.9082 137.45 20.7145 137.459 20.5322L137.992 21.2637C137.938 21.4505 137.844 21.651 137.712 21.8652C137.58 22.0794 137.407 22.2845 137.192 22.4805C136.983 22.6719 136.73 22.8291 136.434 22.9521C136.142 23.0752 135.805 23.1367 135.422 23.1367C134.939 23.1367 134.508 23.041 134.13 22.8496C133.752 22.6536 133.455 22.3916 133.241 22.0635C133.027 21.7308 132.92 21.3548 132.92 20.9355C132.92 20.5436 132.993 20.1973 133.139 19.8965C133.289 19.5911 133.508 19.3359 133.795 19.1309C134.087 18.9258 134.442 18.7708 134.861 18.666C135.281 18.5566 135.759 18.502 136.297 18.502H137.589ZM142.36 17.1826V23H140.713V15.6035H142.265L142.36 17.1826ZM142.066 19.0283L141.533 19.0215C141.538 18.4974 141.611 18.0166 141.752 17.5791C141.898 17.1416 142.098 16.7656 142.354 16.4512C142.613 16.1367 142.923 15.8952 143.283 15.7266C143.643 15.5534 144.044 15.4668 144.486 15.4668C144.842 15.4668 145.163 15.5169 145.45 15.6172C145.742 15.7129 145.99 15.8701 146.195 16.0889C146.405 16.3076 146.564 16.5924 146.674 16.9434C146.783 17.2897 146.838 17.7158 146.838 18.2217V23H145.184V18.2148C145.184 17.8594 145.131 17.5791 145.026 17.374C144.926 17.1644 144.778 17.0163 144.582 16.9297C144.391 16.8385 144.151 16.793 143.864 16.793C143.582 16.793 143.329 16.8522 143.105 16.9707C142.882 17.0892 142.693 17.251 142.538 17.4561C142.388 17.6611 142.271 17.8981 142.189 18.167C142.107 18.4359 142.066 18.723 142.066 19.0283ZM150.666 22.1934L152.676 15.6035H154.439L151.473 24.1279C151.404 24.3102 151.315 24.5085 151.206 24.7227C151.097 24.9368 150.953 25.1396 150.775 25.3311C150.602 25.527 150.386 25.6842 150.126 25.8027C149.866 25.9258 149.552 25.9873 149.183 25.9873C149.037 25.9873 148.896 25.9736 148.759 25.9463C148.627 25.9235 148.501 25.8984 148.383 25.8711L148.376 24.6133C148.422 24.6178 148.476 24.6224 148.54 24.627C148.608 24.6315 148.663 24.6338 148.704 24.6338C148.978 24.6338 149.205 24.5996 149.388 24.5312C149.57 24.4674 149.718 24.3626 149.832 24.2168C149.951 24.071 150.051 23.875 150.133 23.6289L150.666 22.1934ZM149.531 15.6035L151.288 21.1406L151.582 22.877L150.44 23.1709L147.754 15.6035H149.531Z" fill="black"/>
</svg>
